%TF.GenerationSoftware,KiCad,Pcbnew,(6.99.0-5233-gf2fcd4b8e1)*%
%TF.CreationDate,2023-01-05T13:17:15+01:00*%
%TF.ProjectId,208_PROGRAM_CARD_PROTO_vintage,3230385f-5052-44f4-9752-414d5f434152,1.0*%
%TF.SameCoordinates,Original*%
%TF.FileFunction,Drillmap*%
%TF.FilePolarity,Positive*%
%FSLAX45Y45*%
G04 Gerber Fmt 4.5, Leading zero omitted, Abs format (unit mm)*
G04 Created by KiCad (PCBNEW (6.99.0-5233-gf2fcd4b8e1)) date 2023-01-05 13:17:15*
%MOMM*%
%LPD*%
G01*
G04 APERTURE LIST*
%ADD10C,0.050000*%
%ADD11C,0.200000*%
%ADD12C,0.090000*%
G04 APERTURE END LIST*
D10*
X21874000Y-7195000D02*
X21874000Y-13745000D01*
X6917500Y-7040000D02*
X21705000Y-7040000D01*
X21039500Y-13909995D02*
G75*
G03*
X20912500Y-14040000I0J-127035D01*
G01*
X6757502Y-13750000D02*
G75*
G03*
X6925000Y-13910000I160378J220D01*
G01*
X9579500Y-14752500D02*
X9579500Y-14037000D01*
X20912500Y-14040000D02*
X20912500Y-14752500D01*
X21712500Y-13910000D02*
X21039500Y-13910000D01*
X9579500Y-14037000D02*
G75*
G03*
X9452500Y-13910000I-127000J0D01*
G01*
X9452500Y-13910000D02*
X6925000Y-13910000D01*
X6917500Y-7040002D02*
G75*
G03*
X6757500Y-7207500I210J-160368D01*
G01*
X6757500Y-13750000D02*
X6757500Y-7207500D01*
X20912500Y-14752500D02*
X9579500Y-14752500D01*
X21712500Y-13910001D02*
G75*
G03*
X21874000Y-13745000I2080J159501D01*
G01*
X21873997Y-7195000D02*
G75*
G03*
X21705000Y-7040000I-161697J-6670D01*
G01*
D11*
D12*
X7010000Y-7192500D02*
X7100000Y-7282500D01*
X7100000Y-7192500D02*
X7010000Y-7282500D01*
X7377500Y-8455000D02*
X7467500Y-8545000D01*
X7467500Y-8455000D02*
X7377500Y-8545000D01*
X7825000Y-8042500D02*
X7915000Y-8132500D01*
X7915000Y-8042500D02*
X7825000Y-8132500D01*
X7910000Y-11212500D02*
X8000000Y-11302500D01*
X8000000Y-11212500D02*
X7910000Y-11302500D01*
X7910000Y-11730000D02*
X8000000Y-11820000D01*
X8000000Y-11730000D02*
X7910000Y-11820000D01*
X7910000Y-12735000D02*
X8000000Y-12825000D01*
X8000000Y-12735000D02*
X7910000Y-12825000D01*
X7917500Y-12220000D02*
X8007500Y-12310000D01*
X8007500Y-12220000D02*
X7917500Y-12310000D01*
X9180000Y-9480000D02*
X9270000Y-9570000D01*
X9270000Y-9480000D02*
X9180000Y-9570000D01*
X9532500Y-8147500D02*
X9622500Y-8237500D01*
X9622500Y-8147500D02*
X9532500Y-8237500D01*
X9534000Y-13612500D02*
X9624000Y-13702500D01*
X9624000Y-13612500D02*
X9534000Y-13702500D01*
X9668000Y-12700000D02*
X9758000Y-12790000D01*
X9758000Y-12700000D02*
X9668000Y-12790000D01*
X9682500Y-12220000D02*
X9772500Y-12310000D01*
X9772500Y-12220000D02*
X9682500Y-12310000D01*
X9695000Y-11725000D02*
X9785000Y-11815000D01*
X9785000Y-11725000D02*
X9695000Y-11815000D01*
X9700000Y-11212500D02*
X9790000Y-11302500D01*
X9790000Y-11212500D02*
X9700000Y-11302500D01*
X9707500Y-10705000D02*
X9797500Y-10795000D01*
X9797500Y-10705000D02*
X9707500Y-10795000D01*
X9848000Y-8035000D02*
X9938000Y-8125000D01*
X9938000Y-8035000D02*
X9848000Y-8125000D01*
X11250000Y-13475000D02*
X11340000Y-13565000D01*
X11340000Y-13475000D02*
X11250000Y-13565000D01*
X11450000Y-12700000D02*
X11540000Y-12790000D01*
X11540000Y-12700000D02*
X11450000Y-12790000D01*
X11454000Y-10692000D02*
X11544000Y-10782000D01*
X11544000Y-10692000D02*
X11454000Y-10782000D01*
X11457500Y-11202500D02*
X11547500Y-11292500D01*
X11547500Y-11202500D02*
X11457500Y-11292500D01*
X11463000Y-11709000D02*
X11553000Y-11799000D01*
X11553000Y-11709000D02*
X11463000Y-11799000D01*
X11467500Y-12220000D02*
X11557500Y-12310000D01*
X11557500Y-12220000D02*
X11467500Y-12310000D01*
X11565000Y-8120000D02*
X11655000Y-8210000D01*
X11655000Y-8120000D02*
X11565000Y-8210000D01*
X11905000Y-8027500D02*
X11995000Y-8117500D01*
X11995000Y-8027500D02*
X11905000Y-8117500D01*
X12295000Y-13486000D02*
X12385000Y-13576000D01*
X12385000Y-13486000D02*
X12295000Y-13576000D01*
X12747500Y-13452500D02*
X12837500Y-13542500D01*
X12837500Y-13452500D02*
X12747500Y-13542500D01*
X13187000Y-13453000D02*
X13277000Y-13543000D01*
X13277000Y-13453000D02*
X13187000Y-13543000D01*
X13236000Y-12696000D02*
X13326000Y-12786000D01*
X13326000Y-12696000D02*
X13236000Y-12786000D01*
X13247500Y-10700000D02*
X13337500Y-10790000D01*
X13337500Y-10700000D02*
X13247500Y-10790000D01*
X13247500Y-11202500D02*
X13337500Y-11292500D01*
X13337500Y-11202500D02*
X13247500Y-11292500D01*
X13247500Y-11697500D02*
X13337500Y-11787500D01*
X13337500Y-11697500D02*
X13247500Y-11787500D01*
X13252500Y-12210000D02*
X13342500Y-12300000D01*
X13342500Y-12210000D02*
X13252500Y-12300000D01*
X13590000Y-8137500D02*
X13680000Y-8227500D01*
X13680000Y-8137500D02*
X13590000Y-8227500D01*
X13615000Y-13472500D02*
X13705000Y-13562500D01*
X13705000Y-13472500D02*
X13615000Y-13562500D01*
X13905000Y-8022500D02*
X13995000Y-8112500D01*
X13995000Y-8022500D02*
X13905000Y-8112500D01*
X14023000Y-13450000D02*
X14113000Y-13540000D01*
X14113000Y-13450000D02*
X14023000Y-13540000D01*
X14418000Y-13456000D02*
X14508000Y-13546000D01*
X14508000Y-13456000D02*
X14418000Y-13546000D01*
X14815000Y-13457500D02*
X14905000Y-13547500D01*
X14905000Y-13457500D02*
X14815000Y-13547500D01*
X15010000Y-11185000D02*
X15100000Y-11275000D01*
X15100000Y-11185000D02*
X15010000Y-11275000D01*
X15010000Y-11690000D02*
X15100000Y-11780000D01*
X15100000Y-11690000D02*
X15010000Y-11780000D01*
X15013000Y-12188000D02*
X15103000Y-12278000D01*
X15103000Y-12188000D02*
X15013000Y-12278000D01*
X15015000Y-10690000D02*
X15105000Y-10780000D01*
X15105000Y-10690000D02*
X15015000Y-10780000D01*
X15017500Y-12677500D02*
X15107500Y-12767500D01*
X15107500Y-12677500D02*
X15017500Y-12767500D01*
X15225000Y-13462500D02*
X15315000Y-13552500D01*
X15315000Y-13462500D02*
X15225000Y-13552500D01*
X15610000Y-8120000D02*
X15700000Y-8210000D01*
X15700000Y-8120000D02*
X15610000Y-8210000D01*
X15645000Y-13445000D02*
X15735000Y-13535000D01*
X15735000Y-13445000D02*
X15645000Y-13535000D01*
X15930000Y-8020000D02*
X16020000Y-8110000D01*
X16020000Y-8020000D02*
X15930000Y-8110000D01*
X16075000Y-13435000D02*
X16165000Y-13525000D01*
X16165000Y-13435000D02*
X16075000Y-13525000D01*
X16496000Y-13424000D02*
X16586000Y-13514000D01*
X16586000Y-13424000D02*
X16496000Y-13514000D01*
X16780000Y-11702500D02*
X16870000Y-11792500D01*
X16870000Y-11702500D02*
X16780000Y-11792500D01*
X16780000Y-12710000D02*
X16870000Y-12800000D01*
X16870000Y-12710000D02*
X16780000Y-12800000D01*
X16785000Y-11192500D02*
X16875000Y-11282500D01*
X16875000Y-11192500D02*
X16785000Y-11282500D01*
X16790000Y-12210000D02*
X16880000Y-12300000D01*
X16880000Y-12210000D02*
X16790000Y-12300000D01*
X16797500Y-10700000D02*
X16887500Y-10790000D01*
X16887500Y-10700000D02*
X16797500Y-10790000D01*
X16926000Y-13417000D02*
X17016000Y-13507000D01*
X17016000Y-13417000D02*
X16926000Y-13507000D01*
X17343000Y-13443000D02*
X17433000Y-13533000D01*
X17433000Y-13443000D02*
X17343000Y-13533000D01*
X17647500Y-8147500D02*
X17737500Y-8237500D01*
X17737500Y-8147500D02*
X17647500Y-8237500D01*
X17751000Y-13432000D02*
X17841000Y-13522000D01*
X17841000Y-13432000D02*
X17751000Y-13522000D01*
X17975000Y-8047500D02*
X18065000Y-8137500D01*
X18065000Y-8047500D02*
X17975000Y-8137500D01*
X18165000Y-13429000D02*
X18255000Y-13519000D01*
X18255000Y-13429000D02*
X18165000Y-13519000D01*
X18547500Y-12700000D02*
X18637500Y-12790000D01*
X18637500Y-12700000D02*
X18547500Y-12790000D01*
X18557500Y-11202500D02*
X18647500Y-11292500D01*
X18647500Y-11202500D02*
X18557500Y-11292500D01*
X18557500Y-11692500D02*
X18647500Y-11782500D01*
X18647500Y-11692500D02*
X18557500Y-11782500D01*
X18562500Y-10692500D02*
X18652500Y-10782500D01*
X18652500Y-10692500D02*
X18562500Y-10782500D01*
X18562500Y-12192500D02*
X18652500Y-12282500D01*
X18652500Y-12192500D02*
X18562500Y-12282500D01*
X18588000Y-13429000D02*
X18678000Y-13519000D01*
X18678000Y-13429000D02*
X18588000Y-13519000D01*
X19012000Y-13436000D02*
X19102000Y-13526000D01*
X19102000Y-13436000D02*
X19012000Y-13526000D01*
X19435000Y-13429000D02*
X19525000Y-13519000D01*
X19525000Y-13429000D02*
X19435000Y-13519000D01*
X19665000Y-8135000D02*
X19755000Y-8225000D01*
X19755000Y-8135000D02*
X19665000Y-8225000D01*
X19846000Y-13426000D02*
X19936000Y-13516000D01*
X19936000Y-13426000D02*
X19846000Y-13516000D01*
X19995000Y-8030000D02*
X20085000Y-8120000D01*
X20085000Y-8030000D02*
X19995000Y-8120000D01*
X20259000Y-13398000D02*
X20349000Y-13488000D01*
X20349000Y-13398000D02*
X20259000Y-13488000D01*
X20315000Y-12705000D02*
X20405000Y-12795000D01*
X20405000Y-12705000D02*
X20315000Y-12795000D01*
X20325000Y-11692500D02*
X20415000Y-11782500D01*
X20415000Y-11692500D02*
X20325000Y-11782500D01*
X20325000Y-12210000D02*
X20415000Y-12300000D01*
X20415000Y-12210000D02*
X20325000Y-12300000D01*
X20327500Y-11197500D02*
X20417500Y-11287500D01*
X20417500Y-11197500D02*
X20327500Y-11287500D01*
X20332500Y-10692500D02*
X20422500Y-10782500D01*
X20422500Y-10692500D02*
X20332500Y-10782500D01*
X20715000Y-13467000D02*
X20805000Y-13557000D01*
X20805000Y-13467000D02*
X20715000Y-13557000D01*
X21660000Y-8062500D02*
X21750000Y-8152500D01*
X21750000Y-8062500D02*
X21660000Y-8152500D01*
X7085000Y-8490000D02*
G75*
G03*
X7085000Y-8490000I-45000J0D01*
G01*
X7265000Y-10710000D02*
G75*
G03*
X7265000Y-10710000I-45000J0D01*
G01*
X7265000Y-10710000D02*
G75*
G03*
X7265000Y-10710000I-45000J0D01*
G01*
X7269000Y-9691000D02*
G75*
G03*
X7269000Y-9691000I-45000J0D01*
G01*
X7270000Y-9690000D02*
G75*
G03*
X7270000Y-9690000I-45000J0D01*
G01*
X7295000Y-9360000D02*
G75*
G03*
X7295000Y-9360000I-45000J0D01*
G01*
X7295000Y-9360000D02*
G75*
G03*
X7295000Y-9360000I-45000J0D01*
G01*
X7305000Y-8990000D02*
G75*
G03*
X7305000Y-8990000I-45000J0D01*
G01*
X7305000Y-8990000D02*
G75*
G03*
X7305000Y-8990000I-45000J0D01*
G01*
X7305000Y-9170000D02*
G75*
G03*
X7305000Y-9170000I-45000J0D01*
G01*
X7305000Y-9170000D02*
G75*
G03*
X7305000Y-9170000I-45000J0D01*
G01*
X7450000Y-7235000D02*
G75*
G03*
X7450000Y-7235000I-45000J0D01*
G01*
X7615000Y-10710000D02*
G75*
G03*
X7615000Y-10710000I-45000J0D01*
G01*
X7615000Y-10710000D02*
G75*
G03*
X7615000Y-10710000I-45000J0D01*
G01*
X7625000Y-9700000D02*
G75*
G03*
X7625000Y-9700000I-45000J0D01*
G01*
X7625000Y-9700000D02*
G75*
G03*
X7625000Y-9700000I-45000J0D01*
G01*
X7635000Y-9200000D02*
G75*
G03*
X7635000Y-9200000I-45000J0D01*
G01*
X7635000Y-9200000D02*
G75*
G03*
X7635000Y-9200000I-45000J0D01*
G01*
X7635000Y-9380000D02*
G75*
G03*
X7635000Y-9380000I-45000J0D01*
G01*
X7635000Y-9380000D02*
G75*
G03*
X7635000Y-9380000I-45000J0D01*
G01*
X7645000Y-9010000D02*
G75*
G03*
X7645000Y-9010000I-45000J0D01*
G01*
X7645000Y-9010000D02*
G75*
G03*
X7645000Y-9010000I-45000J0D01*
G01*
X7735000Y-7541250D02*
G75*
G03*
X7735000Y-7541250I-45000J0D01*
G01*
X7735000Y-7727650D02*
G75*
G03*
X7735000Y-7727650I-45000J0D01*
G01*
X7735000Y-8491250D02*
G75*
G03*
X7735000Y-8491250I-45000J0D01*
G01*
X7735000Y-8677650D02*
G75*
G03*
X7735000Y-8677650I-45000J0D01*
G01*
X7965000Y-9400000D02*
G75*
G03*
X7965000Y-9400000I-45000J0D01*
G01*
X7965000Y-9400000D02*
G75*
G03*
X7965000Y-9400000I-45000J0D01*
G01*
X7965000Y-9710000D02*
G75*
G03*
X7965000Y-9710000I-45000J0D01*
G01*
X7965000Y-9710000D02*
G75*
G03*
X7965000Y-9710000I-45000J0D01*
G01*
X7975000Y-9210000D02*
G75*
G03*
X7975000Y-9210000I-45000J0D01*
G01*
X7975000Y-9210000D02*
G75*
G03*
X7975000Y-9210000I-45000J0D01*
G01*
X7985000Y-9030000D02*
G75*
G03*
X7985000Y-9030000I-45000J0D01*
G01*
X7985000Y-9030000D02*
G75*
G03*
X7985000Y-9030000I-45000J0D01*
G01*
X7988997Y-8491250D02*
G75*
G03*
X7988997Y-8491250I-45000J0D01*
G01*
X7988997Y-8677650D02*
G75*
G03*
X7988997Y-8677650I-45000J0D01*
G01*
X7989000Y-7541250D02*
G75*
G03*
X7989000Y-7541250I-45000J0D01*
G01*
X7989000Y-7727650D02*
G75*
G03*
X7989000Y-7727650I-45000J0D01*
G01*
X7995000Y-10700000D02*
G75*
G03*
X7995000Y-10700000I-45000J0D01*
G01*
X7995000Y-10700000D02*
G75*
G03*
X7995000Y-10700000I-45000J0D01*
G01*
X8105000Y-7230000D02*
G75*
G03*
X8105000Y-7230000I-45000J0D01*
G01*
X8242994Y-8491250D02*
G75*
G03*
X8242994Y-8491250I-45000J0D01*
G01*
X8242994Y-8677650D02*
G75*
G03*
X8242994Y-8677650I-45000J0D01*
G01*
X8243000Y-7541250D02*
G75*
G03*
X8243000Y-7541250I-45000J0D01*
G01*
X8243000Y-7727650D02*
G75*
G03*
X8243000Y-7727650I-45000J0D01*
G01*
X8325000Y-8130000D02*
G75*
G03*
X8325000Y-8130000I-45000J0D01*
G01*
X8325000Y-9220000D02*
G75*
G03*
X8325000Y-9220000I-45000J0D01*
G01*
X8325000Y-9220000D02*
G75*
G03*
X8325000Y-9220000I-45000J0D01*
G01*
X8325000Y-9380000D02*
G75*
G03*
X8325000Y-9380000I-45000J0D01*
G01*
X8325000Y-9380000D02*
G75*
G03*
X8325000Y-9380000I-45000J0D01*
G01*
X8345000Y-9040000D02*
G75*
G03*
X8345000Y-9040000I-45000J0D01*
G01*
X8345000Y-9040000D02*
G75*
G03*
X8345000Y-9040000I-45000J0D01*
G01*
X8365000Y-9710000D02*
G75*
G03*
X8365000Y-9710000I-45000J0D01*
G01*
X8365000Y-9710000D02*
G75*
G03*
X8365000Y-9710000I-45000J0D01*
G01*
X8365000Y-10690000D02*
G75*
G03*
X8365000Y-10690000I-45000J0D01*
G01*
X8365000Y-10690000D02*
G75*
G03*
X8365000Y-10690000I-45000J0D01*
G01*
X8496992Y-8491250D02*
G75*
G03*
X8496992Y-8491250I-45000J0D01*
G01*
X8496992Y-8677650D02*
G75*
G03*
X8496992Y-8677650I-45000J0D01*
G01*
X8497000Y-7541250D02*
G75*
G03*
X8497000Y-7541250I-45000J0D01*
G01*
X8497000Y-7727650D02*
G75*
G03*
X8497000Y-7727650I-45000J0D01*
G01*
X8695000Y-9040000D02*
G75*
G03*
X8695000Y-9040000I-45000J0D01*
G01*
X8695000Y-9040000D02*
G75*
G03*
X8695000Y-9040000I-45000J0D01*
G01*
X8695000Y-9210000D02*
G75*
G03*
X8695000Y-9210000I-45000J0D01*
G01*
X8695000Y-9210000D02*
G75*
G03*
X8695000Y-9210000I-45000J0D01*
G01*
X8705000Y-9380000D02*
G75*
G03*
X8705000Y-9380000I-45000J0D01*
G01*
X8705000Y-9380000D02*
G75*
G03*
X8705000Y-9380000I-45000J0D01*
G01*
X8745000Y-9695000D02*
G75*
G03*
X8745000Y-9695000I-45000J0D01*
G01*
X8745000Y-9700000D02*
G75*
G03*
X8745000Y-9700000I-45000J0D01*
G01*
X8750989Y-8491250D02*
G75*
G03*
X8750989Y-8491250I-45000J0D01*
G01*
X8750989Y-8677650D02*
G75*
G03*
X8750989Y-8677650I-45000J0D01*
G01*
X8751000Y-7541250D02*
G75*
G03*
X8751000Y-7541250I-45000J0D01*
G01*
X8751000Y-7727650D02*
G75*
G03*
X8751000Y-7727650I-45000J0D01*
G01*
X8755000Y-8110000D02*
G75*
G03*
X8755000Y-8110000I-45000J0D01*
G01*
X8765000Y-10690000D02*
G75*
G03*
X8765000Y-10690000I-45000J0D01*
G01*
X8765000Y-10690000D02*
G75*
G03*
X8765000Y-10690000I-45000J0D01*
G01*
X8865000Y-12500000D02*
G75*
G03*
X8865000Y-12500000I-45000J0D01*
G01*
X8865000Y-12500000D02*
G75*
G03*
X8865000Y-12500000I-45000J0D01*
G01*
X8875000Y-11010000D02*
G75*
G03*
X8875000Y-11010000I-45000J0D01*
G01*
X8875000Y-12010000D02*
G75*
G03*
X8875000Y-12010000I-45000J0D01*
G01*
X8875000Y-12010000D02*
G75*
G03*
X8875000Y-12010000I-45000J0D01*
G01*
X8885000Y-11520000D02*
G75*
G03*
X8885000Y-11520000I-45000J0D01*
G01*
X8885000Y-11520000D02*
G75*
G03*
X8885000Y-11520000I-45000J0D01*
G01*
X9004986Y-8491250D02*
G75*
G03*
X9004986Y-8491250I-45000J0D01*
G01*
X9004986Y-8677650D02*
G75*
G03*
X9004986Y-8677650I-45000J0D01*
G01*
X9005000Y-7541250D02*
G75*
G03*
X9005000Y-7541250I-45000J0D01*
G01*
X9005000Y-7727650D02*
G75*
G03*
X9005000Y-7727650I-45000J0D01*
G01*
X9135000Y-7230000D02*
G75*
G03*
X9135000Y-7230000I-45000J0D01*
G01*
X9195000Y-8120000D02*
G75*
G03*
X9195000Y-8120000I-45000J0D01*
G01*
X9258983Y-8491250D02*
G75*
G03*
X9258983Y-8491250I-45000J0D01*
G01*
X9258983Y-8677650D02*
G75*
G03*
X9258983Y-8677650I-45000J0D01*
G01*
X9259000Y-7541250D02*
G75*
G03*
X9259000Y-7541250I-45000J0D01*
G01*
X9259000Y-7727650D02*
G75*
G03*
X9259000Y-7727650I-45000J0D01*
G01*
X9265000Y-10530000D02*
G75*
G03*
X9265000Y-10530000I-45000J0D01*
G01*
X9265000Y-10530000D02*
G75*
G03*
X9265000Y-10530000I-45000J0D01*
G01*
X9512980Y-8491250D02*
G75*
G03*
X9512980Y-8491250I-45000J0D01*
G01*
X9512980Y-8677650D02*
G75*
G03*
X9512980Y-8677650I-45000J0D01*
G01*
X9513000Y-7541250D02*
G75*
G03*
X9513000Y-7541250I-45000J0D01*
G01*
X9513000Y-7727650D02*
G75*
G03*
X9513000Y-7727650I-45000J0D01*
G01*
X9750000Y-10375000D02*
G75*
G03*
X9750000Y-10375000I-45000J0D01*
G01*
X9750000Y-10375000D02*
G75*
G03*
X9750000Y-10375000I-45000J0D01*
G01*
X9755000Y-9370000D02*
G75*
G03*
X9755000Y-9370000I-45000J0D01*
G01*
X9755000Y-9370000D02*
G75*
G03*
X9755000Y-9370000I-45000J0D01*
G01*
X9766978Y-8491250D02*
G75*
G03*
X9766978Y-8491250I-45000J0D01*
G01*
X9766978Y-8677650D02*
G75*
G03*
X9766978Y-8677650I-45000J0D01*
G01*
X9767000Y-7541250D02*
G75*
G03*
X9767000Y-7541250I-45000J0D01*
G01*
X9767000Y-7727650D02*
G75*
G03*
X9767000Y-7727650I-45000J0D01*
G01*
X10020975Y-8491250D02*
G75*
G03*
X10020975Y-8491250I-45000J0D01*
G01*
X10020975Y-8677650D02*
G75*
G03*
X10020975Y-8677650I-45000J0D01*
G01*
X10021000Y-7541250D02*
G75*
G03*
X10021000Y-7541250I-45000J0D01*
G01*
X10021000Y-7727650D02*
G75*
G03*
X10021000Y-7727650I-45000J0D01*
G01*
X10135000Y-7230000D02*
G75*
G03*
X10135000Y-7230000I-45000J0D01*
G01*
X10135000Y-9370000D02*
G75*
G03*
X10135000Y-9370000I-45000J0D01*
G01*
X10135000Y-9370000D02*
G75*
G03*
X10135000Y-9370000I-45000J0D01*
G01*
X10165000Y-10380000D02*
G75*
G03*
X10165000Y-10380000I-45000J0D01*
G01*
X10165000Y-10380000D02*
G75*
G03*
X10165000Y-10380000I-45000J0D01*
G01*
X10274972Y-8491250D02*
G75*
G03*
X10274972Y-8491250I-45000J0D01*
G01*
X10274972Y-8677650D02*
G75*
G03*
X10274972Y-8677650I-45000J0D01*
G01*
X10275000Y-7541250D02*
G75*
G03*
X10275000Y-7541250I-45000J0D01*
G01*
X10275000Y-7727650D02*
G75*
G03*
X10275000Y-7727650I-45000J0D01*
G01*
X10335000Y-8100000D02*
G75*
G03*
X10335000Y-8100000I-45000J0D01*
G01*
X10515000Y-9360000D02*
G75*
G03*
X10515000Y-9360000I-45000J0D01*
G01*
X10515000Y-9360000D02*
G75*
G03*
X10515000Y-9360000I-45000J0D01*
G01*
X10515000Y-10380000D02*
G75*
G03*
X10515000Y-10380000I-45000J0D01*
G01*
X10515000Y-10380000D02*
G75*
G03*
X10515000Y-10380000I-45000J0D01*
G01*
X10528969Y-8491250D02*
G75*
G03*
X10528969Y-8491250I-45000J0D01*
G01*
X10528969Y-8677650D02*
G75*
G03*
X10528969Y-8677650I-45000J0D01*
G01*
X10529000Y-7541250D02*
G75*
G03*
X10529000Y-7541250I-45000J0D01*
G01*
X10529000Y-7727650D02*
G75*
G03*
X10529000Y-7727650I-45000J0D01*
G01*
X10635000Y-12490000D02*
G75*
G03*
X10635000Y-12490000I-45000J0D01*
G01*
X10635000Y-12490000D02*
G75*
G03*
X10635000Y-12490000I-45000J0D01*
G01*
X10640000Y-12005000D02*
G75*
G03*
X10640000Y-12005000I-45000J0D01*
G01*
X10640000Y-12005000D02*
G75*
G03*
X10640000Y-12005000I-45000J0D01*
G01*
X10645000Y-11500000D02*
G75*
G03*
X10645000Y-11500000I-45000J0D01*
G01*
X10645000Y-11500000D02*
G75*
G03*
X10645000Y-11500000I-45000J0D01*
G01*
X10660000Y-11000000D02*
G75*
G03*
X10660000Y-11000000I-45000J0D01*
G01*
X10660000Y-11000000D02*
G75*
G03*
X10660000Y-11000000I-45000J0D01*
G01*
X10782966Y-8491250D02*
G75*
G03*
X10782966Y-8491250I-45000J0D01*
G01*
X10782966Y-8677650D02*
G75*
G03*
X10782966Y-8677650I-45000J0D01*
G01*
X10783000Y-7541250D02*
G75*
G03*
X10783000Y-7541250I-45000J0D01*
G01*
X10783000Y-7727650D02*
G75*
G03*
X10783000Y-7727650I-45000J0D01*
G01*
X10785000Y-8100000D02*
G75*
G03*
X10785000Y-8100000I-45000J0D01*
G01*
X10860000Y-10385000D02*
G75*
G03*
X10860000Y-10385000I-45000J0D01*
G01*
X10860000Y-10385000D02*
G75*
G03*
X10860000Y-10385000I-45000J0D01*
G01*
X10905000Y-9360000D02*
G75*
G03*
X10905000Y-9360000I-45000J0D01*
G01*
X10905000Y-9360000D02*
G75*
G03*
X10905000Y-9360000I-45000J0D01*
G01*
X11036964Y-8491250D02*
G75*
G03*
X11036964Y-8491250I-45000J0D01*
G01*
X11036964Y-8677650D02*
G75*
G03*
X11036964Y-8677650I-45000J0D01*
G01*
X11037000Y-7541250D02*
G75*
G03*
X11037000Y-7541250I-45000J0D01*
G01*
X11037000Y-7727650D02*
G75*
G03*
X11037000Y-7727650I-45000J0D01*
G01*
X11155000Y-7230000D02*
G75*
G03*
X11155000Y-7230000I-45000J0D01*
G01*
X11215000Y-8120000D02*
G75*
G03*
X11215000Y-8120000I-45000J0D01*
G01*
X11250000Y-10390000D02*
G75*
G03*
X11250000Y-10390000I-45000J0D01*
G01*
X11250000Y-10390000D02*
G75*
G03*
X11250000Y-10390000I-45000J0D01*
G01*
X11265000Y-9370000D02*
G75*
G03*
X11265000Y-9370000I-45000J0D01*
G01*
X11265000Y-9370000D02*
G75*
G03*
X11265000Y-9370000I-45000J0D01*
G01*
X11290961Y-8491250D02*
G75*
G03*
X11290961Y-8491250I-45000J0D01*
G01*
X11290961Y-8677650D02*
G75*
G03*
X11290961Y-8677650I-45000J0D01*
G01*
X11291000Y-7541250D02*
G75*
G03*
X11291000Y-7541250I-45000J0D01*
G01*
X11291000Y-7727650D02*
G75*
G03*
X11291000Y-7727650I-45000J0D01*
G01*
X11544958Y-8491250D02*
G75*
G03*
X11544958Y-8491250I-45000J0D01*
G01*
X11544958Y-8677650D02*
G75*
G03*
X11544958Y-8677650I-45000J0D01*
G01*
X11545000Y-7541250D02*
G75*
G03*
X11545000Y-7541250I-45000J0D01*
G01*
X11545000Y-7727650D02*
G75*
G03*
X11545000Y-7727650I-45000J0D01*
G01*
X11795000Y-9360000D02*
G75*
G03*
X11795000Y-9360000I-45000J0D01*
G01*
X11795000Y-9360000D02*
G75*
G03*
X11795000Y-9360000I-45000J0D01*
G01*
X11795000Y-10380000D02*
G75*
G03*
X11795000Y-10380000I-45000J0D01*
G01*
X11795000Y-10380000D02*
G75*
G03*
X11795000Y-10380000I-45000J0D01*
G01*
X11798955Y-8491250D02*
G75*
G03*
X11798955Y-8491250I-45000J0D01*
G01*
X11798955Y-8677650D02*
G75*
G03*
X11798955Y-8677650I-45000J0D01*
G01*
X11799000Y-7541250D02*
G75*
G03*
X11799000Y-7541250I-45000J0D01*
G01*
X11799000Y-7727650D02*
G75*
G03*
X11799000Y-7727650I-45000J0D01*
G01*
X12052952Y-8491250D02*
G75*
G03*
X12052952Y-8491250I-45000J0D01*
G01*
X12052952Y-8677650D02*
G75*
G03*
X12052952Y-8677650I-45000J0D01*
G01*
X12053000Y-7541250D02*
G75*
G03*
X12053000Y-7541250I-45000J0D01*
G01*
X12053000Y-7727650D02*
G75*
G03*
X12053000Y-7727650I-45000J0D01*
G01*
X12175000Y-7240000D02*
G75*
G03*
X12175000Y-7240000I-45000J0D01*
G01*
X12175000Y-9360000D02*
G75*
G03*
X12175000Y-9360000I-45000J0D01*
G01*
X12175000Y-9360000D02*
G75*
G03*
X12175000Y-9360000I-45000J0D01*
G01*
X12175000Y-10380000D02*
G75*
G03*
X12175000Y-10380000I-45000J0D01*
G01*
X12175000Y-10380000D02*
G75*
G03*
X12175000Y-10380000I-45000J0D01*
G01*
X12306950Y-8491250D02*
G75*
G03*
X12306950Y-8491250I-45000J0D01*
G01*
X12306950Y-8677650D02*
G75*
G03*
X12306950Y-8677650I-45000J0D01*
G01*
X12307000Y-7541250D02*
G75*
G03*
X12307000Y-7541250I-45000J0D01*
G01*
X12307000Y-7727650D02*
G75*
G03*
X12307000Y-7727650I-45000J0D01*
G01*
X12375000Y-8110000D02*
G75*
G03*
X12375000Y-8110000I-45000J0D01*
G01*
X12405000Y-12470000D02*
G75*
G03*
X12405000Y-12470000I-45000J0D01*
G01*
X12405000Y-12470000D02*
G75*
G03*
X12405000Y-12470000I-45000J0D01*
G01*
X12410000Y-11000000D02*
G75*
G03*
X12410000Y-11000000I-45000J0D01*
G01*
X12410000Y-11000000D02*
G75*
G03*
X12410000Y-11000000I-45000J0D01*
G01*
X12425000Y-11500000D02*
G75*
G03*
X12425000Y-11500000I-45000J0D01*
G01*
X12425000Y-11500000D02*
G75*
G03*
X12425000Y-11500000I-45000J0D01*
G01*
X12425000Y-12000000D02*
G75*
G03*
X12425000Y-12000000I-45000J0D01*
G01*
X12425000Y-12000000D02*
G75*
G03*
X12425000Y-12000000I-45000J0D01*
G01*
X12560947Y-8491250D02*
G75*
G03*
X12560947Y-8491250I-45000J0D01*
G01*
X12560947Y-8677650D02*
G75*
G03*
X12560947Y-8677650I-45000J0D01*
G01*
X12561000Y-7541250D02*
G75*
G03*
X12561000Y-7541250I-45000J0D01*
G01*
X12561000Y-7727650D02*
G75*
G03*
X12561000Y-7727650I-45000J0D01*
G01*
X12675000Y-9350000D02*
G75*
G03*
X12675000Y-9350000I-45000J0D01*
G01*
X12675000Y-9350000D02*
G75*
G03*
X12675000Y-9350000I-45000J0D01*
G01*
X12675000Y-10370000D02*
G75*
G03*
X12675000Y-10370000I-45000J0D01*
G01*
X12675000Y-10370000D02*
G75*
G03*
X12675000Y-10370000I-45000J0D01*
G01*
X12814944Y-8491250D02*
G75*
G03*
X12814944Y-8491250I-45000J0D01*
G01*
X12814944Y-8677650D02*
G75*
G03*
X12814944Y-8677650I-45000J0D01*
G01*
X12815000Y-7541250D02*
G75*
G03*
X12815000Y-7541250I-45000J0D01*
G01*
X12815000Y-7727650D02*
G75*
G03*
X12815000Y-7727650I-45000J0D01*
G01*
X12815000Y-8100000D02*
G75*
G03*
X12815000Y-8100000I-45000J0D01*
G01*
X13055000Y-10370000D02*
G75*
G03*
X13055000Y-10370000I-45000J0D01*
G01*
X13055000Y-10370000D02*
G75*
G03*
X13055000Y-10370000I-45000J0D01*
G01*
X13065000Y-9380000D02*
G75*
G03*
X13065000Y-9380000I-45000J0D01*
G01*
X13065000Y-9380000D02*
G75*
G03*
X13065000Y-9380000I-45000J0D01*
G01*
X13068941Y-8491250D02*
G75*
G03*
X13068941Y-8491250I-45000J0D01*
G01*
X13068941Y-8677650D02*
G75*
G03*
X13068941Y-8677650I-45000J0D01*
G01*
X13069000Y-7541250D02*
G75*
G03*
X13069000Y-7541250I-45000J0D01*
G01*
X13069000Y-7727650D02*
G75*
G03*
X13069000Y-7727650I-45000J0D01*
G01*
X13195000Y-7230000D02*
G75*
G03*
X13195000Y-7230000I-45000J0D01*
G01*
X13255000Y-8100000D02*
G75*
G03*
X13255000Y-8100000I-45000J0D01*
G01*
X13322938Y-8491250D02*
G75*
G03*
X13322938Y-8491250I-45000J0D01*
G01*
X13322938Y-8677650D02*
G75*
G03*
X13322938Y-8677650I-45000J0D01*
G01*
X13323000Y-7541250D02*
G75*
G03*
X13323000Y-7541250I-45000J0D01*
G01*
X13323000Y-7727650D02*
G75*
G03*
X13323000Y-7727650I-45000J0D01*
G01*
X13435000Y-9370000D02*
G75*
G03*
X13435000Y-9370000I-45000J0D01*
G01*
X13435000Y-9370000D02*
G75*
G03*
X13435000Y-9370000I-45000J0D01*
G01*
X13435000Y-10370000D02*
G75*
G03*
X13435000Y-10370000I-45000J0D01*
G01*
X13435000Y-10370000D02*
G75*
G03*
X13435000Y-10370000I-45000J0D01*
G01*
X13576936Y-8491250D02*
G75*
G03*
X13576936Y-8491250I-45000J0D01*
G01*
X13576936Y-8677650D02*
G75*
G03*
X13576936Y-8677650I-45000J0D01*
G01*
X13577000Y-7541250D02*
G75*
G03*
X13577000Y-7541250I-45000J0D01*
G01*
X13577000Y-7727650D02*
G75*
G03*
X13577000Y-7727650I-45000J0D01*
G01*
X13830933Y-8491250D02*
G75*
G03*
X13830933Y-8491250I-45000J0D01*
G01*
X13830933Y-8677650D02*
G75*
G03*
X13830933Y-8677650I-45000J0D01*
G01*
X13831000Y-7541250D02*
G75*
G03*
X13831000Y-7541250I-45000J0D01*
G01*
X13831000Y-7727650D02*
G75*
G03*
X13831000Y-7727650I-45000J0D01*
G01*
X13945000Y-10370000D02*
G75*
G03*
X13945000Y-10370000I-45000J0D01*
G01*
X13945000Y-10370000D02*
G75*
G03*
X13945000Y-10370000I-45000J0D01*
G01*
X13955000Y-9360000D02*
G75*
G03*
X13955000Y-9360000I-45000J0D01*
G01*
X13955000Y-9360000D02*
G75*
G03*
X13955000Y-9360000I-45000J0D01*
G01*
X14084930Y-8491250D02*
G75*
G03*
X14084930Y-8491250I-45000J0D01*
G01*
X14084930Y-8677650D02*
G75*
G03*
X14084930Y-8677650I-45000J0D01*
G01*
X14085000Y-7541250D02*
G75*
G03*
X14085000Y-7541250I-45000J0D01*
G01*
X14085000Y-7727650D02*
G75*
G03*
X14085000Y-7727650I-45000J0D01*
G01*
X14195000Y-11490000D02*
G75*
G03*
X14195000Y-11490000I-45000J0D01*
G01*
X14195000Y-11490000D02*
G75*
G03*
X14195000Y-11490000I-45000J0D01*
G01*
X14195000Y-12495000D02*
G75*
G03*
X14195000Y-12495000I-45000J0D01*
G01*
X14195000Y-12495000D02*
G75*
G03*
X14195000Y-12495000I-45000J0D01*
G01*
X14205000Y-7220000D02*
G75*
G03*
X14205000Y-7220000I-45000J0D01*
G01*
X14205000Y-10990000D02*
G75*
G03*
X14205000Y-10990000I-45000J0D01*
G01*
X14205000Y-10990000D02*
G75*
G03*
X14205000Y-10990000I-45000J0D01*
G01*
X14215000Y-12010000D02*
G75*
G03*
X14215000Y-12010000I-45000J0D01*
G01*
X14215000Y-12010000D02*
G75*
G03*
X14215000Y-12010000I-45000J0D01*
G01*
X14315000Y-9370000D02*
G75*
G03*
X14315000Y-9370000I-45000J0D01*
G01*
X14315000Y-9370000D02*
G75*
G03*
X14315000Y-9370000I-45000J0D01*
G01*
X14325000Y-10370000D02*
G75*
G03*
X14325000Y-10370000I-45000J0D01*
G01*
X14325000Y-10370000D02*
G75*
G03*
X14325000Y-10370000I-45000J0D01*
G01*
X14338927Y-8491250D02*
G75*
G03*
X14338927Y-8491250I-45000J0D01*
G01*
X14338927Y-8677650D02*
G75*
G03*
X14338927Y-8677650I-45000J0D01*
G01*
X14339000Y-7541250D02*
G75*
G03*
X14339000Y-7541250I-45000J0D01*
G01*
X14339000Y-7727650D02*
G75*
G03*
X14339000Y-7727650I-45000J0D01*
G01*
X14405000Y-8110000D02*
G75*
G03*
X14405000Y-8110000I-45000J0D01*
G01*
X14592924Y-8491250D02*
G75*
G03*
X14592924Y-8491250I-45000J0D01*
G01*
X14592924Y-8677650D02*
G75*
G03*
X14592924Y-8677650I-45000J0D01*
G01*
X14593000Y-7541250D02*
G75*
G03*
X14593000Y-7541250I-45000J0D01*
G01*
X14593000Y-7727650D02*
G75*
G03*
X14593000Y-7727650I-45000J0D01*
G01*
X14705000Y-9370000D02*
G75*
G03*
X14705000Y-9370000I-45000J0D01*
G01*
X14705000Y-9370000D02*
G75*
G03*
X14705000Y-9370000I-45000J0D01*
G01*
X14715000Y-10380000D02*
G75*
G03*
X14715000Y-10380000I-45000J0D01*
G01*
X14715000Y-10380000D02*
G75*
G03*
X14715000Y-10380000I-45000J0D01*
G01*
X14845000Y-8110000D02*
G75*
G03*
X14845000Y-8110000I-45000J0D01*
G01*
X14846922Y-8491250D02*
G75*
G03*
X14846922Y-8491250I-45000J0D01*
G01*
X14846922Y-8677650D02*
G75*
G03*
X14846922Y-8677650I-45000J0D01*
G01*
X14847000Y-7541250D02*
G75*
G03*
X14847000Y-7541250I-45000J0D01*
G01*
X14847000Y-7727650D02*
G75*
G03*
X14847000Y-7727650I-45000J0D01*
G01*
X15100919Y-8491250D02*
G75*
G03*
X15100919Y-8491250I-45000J0D01*
G01*
X15100919Y-8677650D02*
G75*
G03*
X15100919Y-8677650I-45000J0D01*
G01*
X15101000Y-7541250D02*
G75*
G03*
X15101000Y-7541250I-45000J0D01*
G01*
X15101000Y-7727650D02*
G75*
G03*
X15101000Y-7727650I-45000J0D01*
G01*
X15215000Y-7210000D02*
G75*
G03*
X15215000Y-7210000I-45000J0D01*
G01*
X15215000Y-9370000D02*
G75*
G03*
X15215000Y-9370000I-45000J0D01*
G01*
X15215000Y-9370000D02*
G75*
G03*
X15215000Y-9370000I-45000J0D01*
G01*
X15215000Y-10380000D02*
G75*
G03*
X15215000Y-10380000I-45000J0D01*
G01*
X15215000Y-10380000D02*
G75*
G03*
X15215000Y-10380000I-45000J0D01*
G01*
X15285000Y-8100000D02*
G75*
G03*
X15285000Y-8100000I-45000J0D01*
G01*
X15354916Y-8491250D02*
G75*
G03*
X15354916Y-8491250I-45000J0D01*
G01*
X15354916Y-8677650D02*
G75*
G03*
X15354916Y-8677650I-45000J0D01*
G01*
X15355000Y-7541250D02*
G75*
G03*
X15355000Y-7541250I-45000J0D01*
G01*
X15355000Y-7727650D02*
G75*
G03*
X15355000Y-7727650I-45000J0D01*
G01*
X15595000Y-10380000D02*
G75*
G03*
X15595000Y-10380000I-45000J0D01*
G01*
X15595000Y-10380000D02*
G75*
G03*
X15595000Y-10380000I-45000J0D01*
G01*
X15605000Y-9370000D02*
G75*
G03*
X15605000Y-9370000I-45000J0D01*
G01*
X15605000Y-9370000D02*
G75*
G03*
X15605000Y-9370000I-45000J0D01*
G01*
X15608913Y-8491250D02*
G75*
G03*
X15608913Y-8491250I-45000J0D01*
G01*
X15608913Y-8677650D02*
G75*
G03*
X15608913Y-8677650I-45000J0D01*
G01*
X15609000Y-7541250D02*
G75*
G03*
X15609000Y-7541250I-45000J0D01*
G01*
X15609000Y-7727650D02*
G75*
G03*
X15609000Y-7727650I-45000J0D01*
G01*
X15862910Y-8491250D02*
G75*
G03*
X15862910Y-8491250I-45000J0D01*
G01*
X15862910Y-8677650D02*
G75*
G03*
X15862910Y-8677650I-45000J0D01*
G01*
X15863000Y-7541250D02*
G75*
G03*
X15863000Y-7541250I-45000J0D01*
G01*
X15863000Y-7727650D02*
G75*
G03*
X15863000Y-7727650I-45000J0D01*
G01*
X15970000Y-12510000D02*
G75*
G03*
X15970000Y-12510000I-45000J0D01*
G01*
X15970000Y-12510000D02*
G75*
G03*
X15970000Y-12510000I-45000J0D01*
G01*
X15975000Y-10990000D02*
G75*
G03*
X15975000Y-10990000I-45000J0D01*
G01*
X15975000Y-10990000D02*
G75*
G03*
X15975000Y-10990000I-45000J0D01*
G01*
X15975000Y-11500000D02*
G75*
G03*
X15975000Y-11500000I-45000J0D01*
G01*
X15975000Y-11500000D02*
G75*
G03*
X15975000Y-11500000I-45000J0D01*
G01*
X15975000Y-12000000D02*
G75*
G03*
X15975000Y-12000000I-45000J0D01*
G01*
X15975000Y-12000000D02*
G75*
G03*
X15975000Y-12000000I-45000J0D01*
G01*
X15985000Y-9370000D02*
G75*
G03*
X15985000Y-9370000I-45000J0D01*
G01*
X15985000Y-9370000D02*
G75*
G03*
X15985000Y-9370000I-45000J0D01*
G01*
X15985000Y-10360000D02*
G75*
G03*
X15985000Y-10360000I-45000J0D01*
G01*
X15985000Y-10360000D02*
G75*
G03*
X15985000Y-10360000I-45000J0D01*
G01*
X16116908Y-8491250D02*
G75*
G03*
X16116908Y-8491250I-45000J0D01*
G01*
X16116908Y-8677650D02*
G75*
G03*
X16116908Y-8677650I-45000J0D01*
G01*
X16117000Y-7541250D02*
G75*
G03*
X16117000Y-7541250I-45000J0D01*
G01*
X16117000Y-7727650D02*
G75*
G03*
X16117000Y-7727650I-45000J0D01*
G01*
X16235000Y-7230000D02*
G75*
G03*
X16235000Y-7230000I-45000J0D01*
G01*
X16370905Y-8491250D02*
G75*
G03*
X16370905Y-8491250I-45000J0D01*
G01*
X16370905Y-8677650D02*
G75*
G03*
X16370905Y-8677650I-45000J0D01*
G01*
X16371000Y-7541250D02*
G75*
G03*
X16371000Y-7541250I-45000J0D01*
G01*
X16371000Y-7727650D02*
G75*
G03*
X16371000Y-7727650I-45000J0D01*
G01*
X16425000Y-8120000D02*
G75*
G03*
X16425000Y-8120000I-45000J0D01*
G01*
X16485000Y-9370000D02*
G75*
G03*
X16485000Y-9370000I-45000J0D01*
G01*
X16485000Y-9370000D02*
G75*
G03*
X16485000Y-9370000I-45000J0D01*
G01*
X16485000Y-10360000D02*
G75*
G03*
X16485000Y-10360000I-45000J0D01*
G01*
X16485000Y-10360000D02*
G75*
G03*
X16485000Y-10360000I-45000J0D01*
G01*
X16624902Y-8491250D02*
G75*
G03*
X16624902Y-8491250I-45000J0D01*
G01*
X16624902Y-8677650D02*
G75*
G03*
X16624902Y-8677650I-45000J0D01*
G01*
X16625000Y-7541250D02*
G75*
G03*
X16625000Y-7541250I-45000J0D01*
G01*
X16625000Y-7727650D02*
G75*
G03*
X16625000Y-7727650I-45000J0D01*
G01*
X16855000Y-8120000D02*
G75*
G03*
X16855000Y-8120000I-45000J0D01*
G01*
X16865000Y-9360000D02*
G75*
G03*
X16865000Y-9360000I-45000J0D01*
G01*
X16865000Y-9360000D02*
G75*
G03*
X16865000Y-9360000I-45000J0D01*
G01*
X16870000Y-10370000D02*
G75*
G03*
X16870000Y-10370000I-45000J0D01*
G01*
X16870000Y-10370000D02*
G75*
G03*
X16870000Y-10370000I-45000J0D01*
G01*
X16878899Y-8491250D02*
G75*
G03*
X16878899Y-8491250I-45000J0D01*
G01*
X16878899Y-8677650D02*
G75*
G03*
X16878899Y-8677650I-45000J0D01*
G01*
X16879000Y-7541250D02*
G75*
G03*
X16879000Y-7541250I-45000J0D01*
G01*
X16879000Y-7727650D02*
G75*
G03*
X16879000Y-7727650I-45000J0D01*
G01*
X17132896Y-8491250D02*
G75*
G03*
X17132896Y-8491250I-45000J0D01*
G01*
X17132896Y-8677650D02*
G75*
G03*
X17132896Y-8677650I-45000J0D01*
G01*
X17133000Y-7541250D02*
G75*
G03*
X17133000Y-7541250I-45000J0D01*
G01*
X17133000Y-7727650D02*
G75*
G03*
X17133000Y-7727650I-45000J0D01*
G01*
X17235000Y-7210000D02*
G75*
G03*
X17235000Y-7210000I-45000J0D01*
G01*
X17235000Y-10370000D02*
G75*
G03*
X17235000Y-10370000I-45000J0D01*
G01*
X17235000Y-10370000D02*
G75*
G03*
X17235000Y-10370000I-45000J0D01*
G01*
X17245000Y-9380000D02*
G75*
G03*
X17245000Y-9380000I-45000J0D01*
G01*
X17245000Y-9380000D02*
G75*
G03*
X17245000Y-9380000I-45000J0D01*
G01*
X17315000Y-8120000D02*
G75*
G03*
X17315000Y-8120000I-45000J0D01*
G01*
X17386894Y-8491250D02*
G75*
G03*
X17386894Y-8491250I-45000J0D01*
G01*
X17386894Y-8677650D02*
G75*
G03*
X17386894Y-8677650I-45000J0D01*
G01*
X17387000Y-7541250D02*
G75*
G03*
X17387000Y-7541250I-45000J0D01*
G01*
X17387000Y-7727650D02*
G75*
G03*
X17387000Y-7727650I-45000J0D01*
G01*
X17640891Y-8491250D02*
G75*
G03*
X17640891Y-8491250I-45000J0D01*
G01*
X17640891Y-8677650D02*
G75*
G03*
X17640891Y-8677650I-45000J0D01*
G01*
X17641000Y-7541250D02*
G75*
G03*
X17641000Y-7541250I-45000J0D01*
G01*
X17641000Y-7727650D02*
G75*
G03*
X17641000Y-7727650I-45000J0D01*
G01*
X17745000Y-11000000D02*
G75*
G03*
X17745000Y-11000000I-45000J0D01*
G01*
X17745000Y-11000000D02*
G75*
G03*
X17745000Y-11000000I-45000J0D01*
G01*
X17745000Y-11500000D02*
G75*
G03*
X17745000Y-11500000I-45000J0D01*
G01*
X17745000Y-11500000D02*
G75*
G03*
X17745000Y-11500000I-45000J0D01*
G01*
X17745000Y-11990000D02*
G75*
G03*
X17745000Y-11990000I-45000J0D01*
G01*
X17745000Y-11990000D02*
G75*
G03*
X17745000Y-11990000I-45000J0D01*
G01*
X17745000Y-12490000D02*
G75*
G03*
X17745000Y-12490000I-45000J0D01*
G01*
X17745000Y-12490000D02*
G75*
G03*
X17745000Y-12490000I-45000J0D01*
G01*
X17755000Y-9360000D02*
G75*
G03*
X17755000Y-9360000I-45000J0D01*
G01*
X17755000Y-9360000D02*
G75*
G03*
X17755000Y-9360000I-45000J0D01*
G01*
X17755000Y-10380000D02*
G75*
G03*
X17755000Y-10380000I-45000J0D01*
G01*
X17755000Y-10380000D02*
G75*
G03*
X17755000Y-10380000I-45000J0D01*
G01*
X17894888Y-8491250D02*
G75*
G03*
X17894888Y-8491250I-45000J0D01*
G01*
X17894888Y-8677650D02*
G75*
G03*
X17894888Y-8677650I-45000J0D01*
G01*
X17895000Y-7541250D02*
G75*
G03*
X17895000Y-7541250I-45000J0D01*
G01*
X17895000Y-7727650D02*
G75*
G03*
X17895000Y-7727650I-45000J0D01*
G01*
X18148885Y-8491250D02*
G75*
G03*
X18148885Y-8491250I-45000J0D01*
G01*
X18148885Y-8677650D02*
G75*
G03*
X18148885Y-8677650I-45000J0D01*
G01*
X18149000Y-7541250D02*
G75*
G03*
X18149000Y-7541250I-45000J0D01*
G01*
X18149000Y-7727650D02*
G75*
G03*
X18149000Y-7727650I-45000J0D01*
G01*
X18265000Y-7230000D02*
G75*
G03*
X18265000Y-7230000I-45000J0D01*
G01*
X18265000Y-9370000D02*
G75*
G03*
X18265000Y-9370000I-45000J0D01*
G01*
X18265000Y-9370000D02*
G75*
G03*
X18265000Y-9370000I-45000J0D01*
G01*
X18265000Y-10370000D02*
G75*
G03*
X18265000Y-10370000I-45000J0D01*
G01*
X18265000Y-10370000D02*
G75*
G03*
X18265000Y-10370000I-45000J0D01*
G01*
X18402882Y-8491250D02*
G75*
G03*
X18402882Y-8491250I-45000J0D01*
G01*
X18402882Y-8677650D02*
G75*
G03*
X18402882Y-8677650I-45000J0D01*
G01*
X18403000Y-7541250D02*
G75*
G03*
X18403000Y-7541250I-45000J0D01*
G01*
X18403000Y-7727650D02*
G75*
G03*
X18403000Y-7727650I-45000J0D01*
G01*
X18455000Y-8120000D02*
G75*
G03*
X18455000Y-8120000I-45000J0D01*
G01*
X18656880Y-8491250D02*
G75*
G03*
X18656880Y-8491250I-45000J0D01*
G01*
X18656880Y-8677650D02*
G75*
G03*
X18656880Y-8677650I-45000J0D01*
G01*
X18657000Y-7541250D02*
G75*
G03*
X18657000Y-7541250I-45000J0D01*
G01*
X18657000Y-7727650D02*
G75*
G03*
X18657000Y-7727650I-45000J0D01*
G01*
X18765000Y-9370000D02*
G75*
G03*
X18765000Y-9370000I-45000J0D01*
G01*
X18765000Y-9370000D02*
G75*
G03*
X18765000Y-9370000I-45000J0D01*
G01*
X18785000Y-10370000D02*
G75*
G03*
X18785000Y-10370000I-45000J0D01*
G01*
X18785000Y-10370000D02*
G75*
G03*
X18785000Y-10370000I-45000J0D01*
G01*
X18905000Y-8120000D02*
G75*
G03*
X18905000Y-8120000I-45000J0D01*
G01*
X18910877Y-8491250D02*
G75*
G03*
X18910877Y-8491250I-45000J0D01*
G01*
X18910877Y-8677650D02*
G75*
G03*
X18910877Y-8677650I-45000J0D01*
G01*
X18911000Y-7541250D02*
G75*
G03*
X18911000Y-7541250I-45000J0D01*
G01*
X18911000Y-7727650D02*
G75*
G03*
X18911000Y-7727650I-45000J0D01*
G01*
X19164874Y-8491250D02*
G75*
G03*
X19164874Y-8491250I-45000J0D01*
G01*
X19164874Y-8677650D02*
G75*
G03*
X19164874Y-8677650I-45000J0D01*
G01*
X19165000Y-7541250D02*
G75*
G03*
X19165000Y-7541250I-45000J0D01*
G01*
X19165000Y-7727650D02*
G75*
G03*
X19165000Y-7727650I-45000J0D01*
G01*
X19275000Y-9370000D02*
G75*
G03*
X19275000Y-9370000I-45000J0D01*
G01*
X19275000Y-9370000D02*
G75*
G03*
X19275000Y-9370000I-45000J0D01*
G01*
X19275000Y-10370000D02*
G75*
G03*
X19275000Y-10370000I-45000J0D01*
G01*
X19275000Y-10370000D02*
G75*
G03*
X19275000Y-10370000I-45000J0D01*
G01*
X19285000Y-7230000D02*
G75*
G03*
X19285000Y-7230000I-45000J0D01*
G01*
X19335000Y-8120000D02*
G75*
G03*
X19335000Y-8120000I-45000J0D01*
G01*
X19418871Y-8491250D02*
G75*
G03*
X19418871Y-8491250I-45000J0D01*
G01*
X19418871Y-8677650D02*
G75*
G03*
X19418871Y-8677650I-45000J0D01*
G01*
X19419000Y-7541250D02*
G75*
G03*
X19419000Y-7541250I-45000J0D01*
G01*
X19419000Y-7727650D02*
G75*
G03*
X19419000Y-7727650I-45000J0D01*
G01*
X19525000Y-10995000D02*
G75*
G03*
X19525000Y-10995000I-45000J0D01*
G01*
X19525000Y-10995000D02*
G75*
G03*
X19525000Y-10995000I-45000J0D01*
G01*
X19525000Y-11520000D02*
G75*
G03*
X19525000Y-11520000I-45000J0D01*
G01*
X19525000Y-11520000D02*
G75*
G03*
X19525000Y-11520000I-45000J0D01*
G01*
X19525000Y-12015000D02*
G75*
G03*
X19525000Y-12015000I-45000J0D01*
G01*
X19525000Y-12015000D02*
G75*
G03*
X19525000Y-12015000I-45000J0D01*
G01*
X19525000Y-12510000D02*
G75*
G03*
X19525000Y-12510000I-45000J0D01*
G01*
X19525000Y-12510000D02*
G75*
G03*
X19525000Y-12510000I-45000J0D01*
G01*
X19672868Y-8491250D02*
G75*
G03*
X19672868Y-8491250I-45000J0D01*
G01*
X19672868Y-8677650D02*
G75*
G03*
X19672868Y-8677650I-45000J0D01*
G01*
X19673000Y-7541250D02*
G75*
G03*
X19673000Y-7541250I-45000J0D01*
G01*
X19673000Y-7727650D02*
G75*
G03*
X19673000Y-7727650I-45000J0D01*
G01*
X19785000Y-9370000D02*
G75*
G03*
X19785000Y-9370000I-45000J0D01*
G01*
X19785000Y-9370000D02*
G75*
G03*
X19785000Y-9370000I-45000J0D01*
G01*
X19785000Y-10390000D02*
G75*
G03*
X19785000Y-10390000I-45000J0D01*
G01*
X19785000Y-10390000D02*
G75*
G03*
X19785000Y-10390000I-45000J0D01*
G01*
X19926866Y-8491250D02*
G75*
G03*
X19926866Y-8491250I-45000J0D01*
G01*
X19926866Y-8677650D02*
G75*
G03*
X19926866Y-8677650I-45000J0D01*
G01*
X19927000Y-7541250D02*
G75*
G03*
X19927000Y-7541250I-45000J0D01*
G01*
X19927000Y-7727650D02*
G75*
G03*
X19927000Y-7727650I-45000J0D01*
G01*
X20165000Y-9370000D02*
G75*
G03*
X20165000Y-9370000I-45000J0D01*
G01*
X20165000Y-9370000D02*
G75*
G03*
X20165000Y-9370000I-45000J0D01*
G01*
X20165000Y-10390000D02*
G75*
G03*
X20165000Y-10390000I-45000J0D01*
G01*
X20165000Y-10390000D02*
G75*
G03*
X20165000Y-10390000I-45000J0D01*
G01*
X20180863Y-8491250D02*
G75*
G03*
X20180863Y-8491250I-45000J0D01*
G01*
X20180863Y-8677650D02*
G75*
G03*
X20180863Y-8677650I-45000J0D01*
G01*
X20181000Y-7541250D02*
G75*
G03*
X20181000Y-7541250I-45000J0D01*
G01*
X20181000Y-7727650D02*
G75*
G03*
X20181000Y-7727650I-45000J0D01*
G01*
X20295000Y-7230000D02*
G75*
G03*
X20295000Y-7230000I-45000J0D01*
G01*
X20434860Y-8491250D02*
G75*
G03*
X20434860Y-8491250I-45000J0D01*
G01*
X20434860Y-8677650D02*
G75*
G03*
X20434860Y-8677650I-45000J0D01*
G01*
X20435000Y-7541250D02*
G75*
G03*
X20435000Y-7541250I-45000J0D01*
G01*
X20435000Y-7727650D02*
G75*
G03*
X20435000Y-7727650I-45000J0D01*
G01*
X20485000Y-8120000D02*
G75*
G03*
X20485000Y-8120000I-45000J0D01*
G01*
X20665000Y-9360000D02*
G75*
G03*
X20665000Y-9360000I-45000J0D01*
G01*
X20665000Y-9360000D02*
G75*
G03*
X20665000Y-9360000I-45000J0D01*
G01*
X20665000Y-10380000D02*
G75*
G03*
X20665000Y-10380000I-45000J0D01*
G01*
X20665000Y-10380000D02*
G75*
G03*
X20665000Y-10380000I-45000J0D01*
G01*
X20688857Y-8491250D02*
G75*
G03*
X20688857Y-8491250I-45000J0D01*
G01*
X20688857Y-8677650D02*
G75*
G03*
X20688857Y-8677650I-45000J0D01*
G01*
X20689000Y-7541250D02*
G75*
G03*
X20689000Y-7541250I-45000J0D01*
G01*
X20689000Y-7727650D02*
G75*
G03*
X20689000Y-7727650I-45000J0D01*
G01*
X20935000Y-8110000D02*
G75*
G03*
X20935000Y-8110000I-45000J0D01*
G01*
X20942854Y-8491250D02*
G75*
G03*
X20942854Y-8491250I-45000J0D01*
G01*
X20942854Y-8677650D02*
G75*
G03*
X20942854Y-8677650I-45000J0D01*
G01*
X20943000Y-7541250D02*
G75*
G03*
X20943000Y-7541250I-45000J0D01*
G01*
X20943000Y-7727650D02*
G75*
G03*
X20943000Y-7727650I-45000J0D01*
G01*
X21185000Y-9370000D02*
G75*
G03*
X21185000Y-9370000I-45000J0D01*
G01*
X21185000Y-9370000D02*
G75*
G03*
X21185000Y-9370000I-45000J0D01*
G01*
X21185000Y-10380000D02*
G75*
G03*
X21185000Y-10380000I-45000J0D01*
G01*
X21185000Y-10380000D02*
G75*
G03*
X21185000Y-10380000I-45000J0D01*
G01*
X21196852Y-8491250D02*
G75*
G03*
X21196852Y-8491250I-45000J0D01*
G01*
X21196852Y-8677650D02*
G75*
G03*
X21196852Y-8677650I-45000J0D01*
G01*
X21197000Y-7541250D02*
G75*
G03*
X21197000Y-7541250I-45000J0D01*
G01*
X21197000Y-7727650D02*
G75*
G03*
X21197000Y-7727650I-45000J0D01*
G01*
X21265000Y-12510000D02*
G75*
G03*
X21265000Y-12510000I-45000J0D01*
G01*
X21265000Y-12510000D02*
G75*
G03*
X21265000Y-12510000I-45000J0D01*
G01*
X21295000Y-11000000D02*
G75*
G03*
X21295000Y-11000000I-45000J0D01*
G01*
X21295000Y-11000000D02*
G75*
G03*
X21295000Y-11000000I-45000J0D01*
G01*
X21295000Y-11505000D02*
G75*
G03*
X21295000Y-11505000I-45000J0D01*
G01*
X21295000Y-11505000D02*
G75*
G03*
X21295000Y-11505000I-45000J0D01*
G01*
X21295000Y-12010000D02*
G75*
G03*
X21295000Y-12010000I-45000J0D01*
G01*
X21295000Y-12010000D02*
G75*
G03*
X21295000Y-12010000I-45000J0D01*
G01*
X21315000Y-7230000D02*
G75*
G03*
X21315000Y-7230000I-45000J0D01*
G01*
X21375000Y-8120000D02*
G75*
G03*
X21375000Y-8120000I-45000J0D01*
G01*
X21450849Y-8491250D02*
G75*
G03*
X21450849Y-8491250I-45000J0D01*
G01*
X21450849Y-8677650D02*
G75*
G03*
X21450849Y-8677650I-45000J0D01*
G01*
X21451000Y-7541250D02*
G75*
G03*
X21451000Y-7541250I-45000J0D01*
G01*
X21451000Y-7727650D02*
G75*
G03*
X21451000Y-7727650I-45000J0D01*
G01*
X21685000Y-10380000D02*
G75*
G03*
X21685000Y-10380000I-45000J0D01*
G01*
X21685000Y-10380000D02*
G75*
G03*
X21685000Y-10380000I-45000J0D01*
G01*
X21695000Y-9370000D02*
G75*
G03*
X21695000Y-9370000I-45000J0D01*
G01*
X21695000Y-9370000D02*
G75*
G03*
X21695000Y-9370000I-45000J0D01*
G01*
X21704850Y-8491250D02*
G75*
G03*
X21704850Y-8491250I-45000J0D01*
G01*
X21704850Y-8677650D02*
G75*
G03*
X21704850Y-8677650I-45000J0D01*
G01*
X21705000Y-7541250D02*
G75*
G03*
X21705000Y-7541250I-45000J0D01*
G01*
X21705000Y-7727650D02*
G75*
G03*
X21705000Y-7727650I-45000J0D01*
G01*
D11*
X7002460Y-15048476D02*
X7002460Y-14848476D01*
X7002460Y-14848476D02*
X7050079Y-14848476D01*
X7050079Y-14848476D02*
X7078651Y-14858000D01*
X7078651Y-14858000D02*
X7097698Y-14877048D01*
X7097698Y-14877048D02*
X7107222Y-14896095D01*
X7107222Y-14896095D02*
X7116746Y-14934190D01*
X7116746Y-14934190D02*
X7116746Y-14962762D01*
X7116746Y-14962762D02*
X7107222Y-15000857D01*
X7107222Y-15000857D02*
X7097698Y-15019905D01*
X7097698Y-15019905D02*
X7078651Y-15038952D01*
X7078651Y-15038952D02*
X7050079Y-15048476D01*
X7050079Y-15048476D02*
X7002460Y-15048476D01*
X7202460Y-15048476D02*
X7202460Y-14915143D01*
X7202460Y-14953238D02*
X7211984Y-14934190D01*
X7211984Y-14934190D02*
X7221508Y-14924667D01*
X7221508Y-14924667D02*
X7240556Y-14915143D01*
X7240556Y-14915143D02*
X7259603Y-14915143D01*
X7326270Y-15048476D02*
X7326270Y-14915143D01*
X7326270Y-14848476D02*
X7316746Y-14858000D01*
X7316746Y-14858000D02*
X7326270Y-14867524D01*
X7326270Y-14867524D02*
X7335794Y-14858000D01*
X7335794Y-14858000D02*
X7326270Y-14848476D01*
X7326270Y-14848476D02*
X7326270Y-14867524D01*
X7450079Y-15048476D02*
X7431032Y-15038952D01*
X7431032Y-15038952D02*
X7421508Y-15019905D01*
X7421508Y-15019905D02*
X7421508Y-14848476D01*
X7554841Y-15048476D02*
X7535794Y-15038952D01*
X7535794Y-15038952D02*
X7526270Y-15019905D01*
X7526270Y-15019905D02*
X7526270Y-14848476D01*
X7751032Y-15048476D02*
X7751032Y-14848476D01*
X7751032Y-14848476D02*
X7817698Y-14991333D01*
X7817698Y-14991333D02*
X7884365Y-14848476D01*
X7884365Y-14848476D02*
X7884365Y-15048476D01*
X8065317Y-15048476D02*
X8065317Y-14943714D01*
X8065317Y-14943714D02*
X8055794Y-14924667D01*
X8055794Y-14924667D02*
X8036746Y-14915143D01*
X8036746Y-14915143D02*
X7998651Y-14915143D01*
X7998651Y-14915143D02*
X7979603Y-14924667D01*
X8065317Y-15038952D02*
X8046270Y-15048476D01*
X8046270Y-15048476D02*
X7998651Y-15048476D01*
X7998651Y-15048476D02*
X7979603Y-15038952D01*
X7979603Y-15038952D02*
X7970079Y-15019905D01*
X7970079Y-15019905D02*
X7970079Y-15000857D01*
X7970079Y-15000857D02*
X7979603Y-14981809D01*
X7979603Y-14981809D02*
X7998651Y-14972286D01*
X7998651Y-14972286D02*
X8046270Y-14972286D01*
X8046270Y-14972286D02*
X8065317Y-14962762D01*
X8160556Y-14915143D02*
X8160556Y-15115143D01*
X8160556Y-14924667D02*
X8179603Y-14915143D01*
X8179603Y-14915143D02*
X8217698Y-14915143D01*
X8217698Y-14915143D02*
X8236746Y-14924667D01*
X8236746Y-14924667D02*
X8246270Y-14934190D01*
X8246270Y-14934190D02*
X8255794Y-14953238D01*
X8255794Y-14953238D02*
X8255794Y-15010381D01*
X8255794Y-15010381D02*
X8246270Y-15029428D01*
X8246270Y-15029428D02*
X8236746Y-15038952D01*
X8236746Y-15038952D02*
X8217698Y-15048476D01*
X8217698Y-15048476D02*
X8179603Y-15048476D01*
X8179603Y-15048476D02*
X8160556Y-15038952D01*
X8341508Y-15029428D02*
X8351032Y-15038952D01*
X8351032Y-15038952D02*
X8341508Y-15048476D01*
X8341508Y-15048476D02*
X8331984Y-15038952D01*
X8331984Y-15038952D02*
X8341508Y-15029428D01*
X8341508Y-15029428D02*
X8341508Y-15048476D01*
X8341508Y-14924667D02*
X8351032Y-14934190D01*
X8351032Y-14934190D02*
X8341508Y-14943714D01*
X8341508Y-14943714D02*
X8331984Y-14934190D01*
X8331984Y-14934190D02*
X8341508Y-14924667D01*
X8341508Y-14924667D02*
X8341508Y-14943714D01*
D12*
X6664841Y-15350000D02*
X6754841Y-15440000D01*
X6754841Y-15350000D02*
X6664841Y-15440000D01*
D11*
X7040556Y-15268476D02*
X7059603Y-15268476D01*
X7059603Y-15268476D02*
X7078651Y-15278000D01*
X7078651Y-15278000D02*
X7088175Y-15287524D01*
X7088175Y-15287524D02*
X7097698Y-15306571D01*
X7097698Y-15306571D02*
X7107222Y-15344667D01*
X7107222Y-15344667D02*
X7107222Y-15392286D01*
X7107222Y-15392286D02*
X7097698Y-15430381D01*
X7097698Y-15430381D02*
X7088175Y-15449428D01*
X7088175Y-15449428D02*
X7078651Y-15458952D01*
X7078651Y-15458952D02*
X7059603Y-15468476D01*
X7059603Y-15468476D02*
X7040556Y-15468476D01*
X7040556Y-15468476D02*
X7021508Y-15458952D01*
X7021508Y-15458952D02*
X7011984Y-15449428D01*
X7011984Y-15449428D02*
X7002460Y-15430381D01*
X7002460Y-15430381D02*
X6992937Y-15392286D01*
X6992937Y-15392286D02*
X6992937Y-15344667D01*
X6992937Y-15344667D02*
X7002460Y-15306571D01*
X7002460Y-15306571D02*
X7011984Y-15287524D01*
X7011984Y-15287524D02*
X7021508Y-15278000D01*
X7021508Y-15278000D02*
X7040556Y-15268476D01*
X7192937Y-15449428D02*
X7202460Y-15458952D01*
X7202460Y-15458952D02*
X7192937Y-15468476D01*
X7192937Y-15468476D02*
X7183413Y-15458952D01*
X7183413Y-15458952D02*
X7192937Y-15449428D01*
X7192937Y-15449428D02*
X7192937Y-15468476D01*
X7297698Y-15468476D02*
X7335794Y-15468476D01*
X7335794Y-15468476D02*
X7354841Y-15458952D01*
X7354841Y-15458952D02*
X7364365Y-15449428D01*
X7364365Y-15449428D02*
X7383413Y-15420857D01*
X7383413Y-15420857D02*
X7392937Y-15382762D01*
X7392937Y-15382762D02*
X7392937Y-15306571D01*
X7392937Y-15306571D02*
X7383413Y-15287524D01*
X7383413Y-15287524D02*
X7373889Y-15278000D01*
X7373889Y-15278000D02*
X7354841Y-15268476D01*
X7354841Y-15268476D02*
X7316746Y-15268476D01*
X7316746Y-15268476D02*
X7297698Y-15278000D01*
X7297698Y-15278000D02*
X7288175Y-15287524D01*
X7288175Y-15287524D02*
X7278651Y-15306571D01*
X7278651Y-15306571D02*
X7278651Y-15354190D01*
X7278651Y-15354190D02*
X7288175Y-15373238D01*
X7288175Y-15373238D02*
X7297698Y-15382762D01*
X7297698Y-15382762D02*
X7316746Y-15392286D01*
X7316746Y-15392286D02*
X7354841Y-15392286D01*
X7354841Y-15392286D02*
X7373889Y-15382762D01*
X7373889Y-15382762D02*
X7383413Y-15373238D01*
X7383413Y-15373238D02*
X7392937Y-15354190D01*
X7516746Y-15268476D02*
X7535794Y-15268476D01*
X7535794Y-15268476D02*
X7554841Y-15278000D01*
X7554841Y-15278000D02*
X7564365Y-15287524D01*
X7564365Y-15287524D02*
X7573889Y-15306571D01*
X7573889Y-15306571D02*
X7583413Y-15344667D01*
X7583413Y-15344667D02*
X7583413Y-15392286D01*
X7583413Y-15392286D02*
X7573889Y-15430381D01*
X7573889Y-15430381D02*
X7564365Y-15449428D01*
X7564365Y-15449428D02*
X7554841Y-15458952D01*
X7554841Y-15458952D02*
X7535794Y-15468476D01*
X7535794Y-15468476D02*
X7516746Y-15468476D01*
X7516746Y-15468476D02*
X7497698Y-15458952D01*
X7497698Y-15458952D02*
X7488175Y-15449428D01*
X7488175Y-15449428D02*
X7478651Y-15430381D01*
X7478651Y-15430381D02*
X7469127Y-15392286D01*
X7469127Y-15392286D02*
X7469127Y-15344667D01*
X7469127Y-15344667D02*
X7478651Y-15306571D01*
X7478651Y-15306571D02*
X7488175Y-15287524D01*
X7488175Y-15287524D02*
X7497698Y-15278000D01*
X7497698Y-15278000D02*
X7516746Y-15268476D01*
X7707222Y-15268476D02*
X7726270Y-15268476D01*
X7726270Y-15268476D02*
X7745318Y-15278000D01*
X7745318Y-15278000D02*
X7754841Y-15287524D01*
X7754841Y-15287524D02*
X7764365Y-15306571D01*
X7764365Y-15306571D02*
X7773889Y-15344667D01*
X7773889Y-15344667D02*
X7773889Y-15392286D01*
X7773889Y-15392286D02*
X7764365Y-15430381D01*
X7764365Y-15430381D02*
X7754841Y-15449428D01*
X7754841Y-15449428D02*
X7745318Y-15458952D01*
X7745318Y-15458952D02*
X7726270Y-15468476D01*
X7726270Y-15468476D02*
X7707222Y-15468476D01*
X7707222Y-15468476D02*
X7688175Y-15458952D01*
X7688175Y-15458952D02*
X7678651Y-15449428D01*
X7678651Y-15449428D02*
X7669127Y-15430381D01*
X7669127Y-15430381D02*
X7659603Y-15392286D01*
X7659603Y-15392286D02*
X7659603Y-15344667D01*
X7659603Y-15344667D02*
X7669127Y-15306571D01*
X7669127Y-15306571D02*
X7678651Y-15287524D01*
X7678651Y-15287524D02*
X7688175Y-15278000D01*
X7688175Y-15278000D02*
X7707222Y-15268476D01*
X7859603Y-15468476D02*
X7859603Y-15335143D01*
X7859603Y-15354190D02*
X7869127Y-15344667D01*
X7869127Y-15344667D02*
X7888175Y-15335143D01*
X7888175Y-15335143D02*
X7916746Y-15335143D01*
X7916746Y-15335143D02*
X7935794Y-15344667D01*
X7935794Y-15344667D02*
X7945318Y-15363714D01*
X7945318Y-15363714D02*
X7945318Y-15468476D01*
X7945318Y-15363714D02*
X7954841Y-15344667D01*
X7954841Y-15344667D02*
X7973889Y-15335143D01*
X7973889Y-15335143D02*
X8002460Y-15335143D01*
X8002460Y-15335143D02*
X8021508Y-15344667D01*
X8021508Y-15344667D02*
X8031032Y-15363714D01*
X8031032Y-15363714D02*
X8031032Y-15468476D01*
X8126270Y-15468476D02*
X8126270Y-15335143D01*
X8126270Y-15354190D02*
X8135794Y-15344667D01*
X8135794Y-15344667D02*
X8154841Y-15335143D01*
X8154841Y-15335143D02*
X8183413Y-15335143D01*
X8183413Y-15335143D02*
X8202460Y-15344667D01*
X8202460Y-15344667D02*
X8211984Y-15363714D01*
X8211984Y-15363714D02*
X8211984Y-15468476D01*
X8211984Y-15363714D02*
X8221508Y-15344667D01*
X8221508Y-15344667D02*
X8240556Y-15335143D01*
X8240556Y-15335143D02*
X8269127Y-15335143D01*
X8269127Y-15335143D02*
X8288175Y-15344667D01*
X8288175Y-15344667D02*
X8297699Y-15363714D01*
X8297699Y-15363714D02*
X8297699Y-15468476D01*
X8655794Y-15258952D02*
X8484365Y-15516095D01*
X8880556Y-15268476D02*
X8899603Y-15268476D01*
X8899603Y-15268476D02*
X8918651Y-15278000D01*
X8918651Y-15278000D02*
X8928175Y-15287524D01*
X8928175Y-15287524D02*
X8937699Y-15306571D01*
X8937699Y-15306571D02*
X8947222Y-15344667D01*
X8947222Y-15344667D02*
X8947222Y-15392286D01*
X8947222Y-15392286D02*
X8937699Y-15430381D01*
X8937699Y-15430381D02*
X8928175Y-15449428D01*
X8928175Y-15449428D02*
X8918651Y-15458952D01*
X8918651Y-15458952D02*
X8899603Y-15468476D01*
X8899603Y-15468476D02*
X8880556Y-15468476D01*
X8880556Y-15468476D02*
X8861508Y-15458952D01*
X8861508Y-15458952D02*
X8851984Y-15449428D01*
X8851984Y-15449428D02*
X8842461Y-15430381D01*
X8842461Y-15430381D02*
X8832937Y-15392286D01*
X8832937Y-15392286D02*
X8832937Y-15344667D01*
X8832937Y-15344667D02*
X8842461Y-15306571D01*
X8842461Y-15306571D02*
X8851984Y-15287524D01*
X8851984Y-15287524D02*
X8861508Y-15278000D01*
X8861508Y-15278000D02*
X8880556Y-15268476D01*
X9032937Y-15449428D02*
X9042461Y-15458952D01*
X9042461Y-15458952D02*
X9032937Y-15468476D01*
X9032937Y-15468476D02*
X9023413Y-15458952D01*
X9023413Y-15458952D02*
X9032937Y-15449428D01*
X9032937Y-15449428D02*
X9032937Y-15468476D01*
X9166270Y-15268476D02*
X9185318Y-15268476D01*
X9185318Y-15268476D02*
X9204365Y-15278000D01*
X9204365Y-15278000D02*
X9213889Y-15287524D01*
X9213889Y-15287524D02*
X9223413Y-15306571D01*
X9223413Y-15306571D02*
X9232937Y-15344667D01*
X9232937Y-15344667D02*
X9232937Y-15392286D01*
X9232937Y-15392286D02*
X9223413Y-15430381D01*
X9223413Y-15430381D02*
X9213889Y-15449428D01*
X9213889Y-15449428D02*
X9204365Y-15458952D01*
X9204365Y-15458952D02*
X9185318Y-15468476D01*
X9185318Y-15468476D02*
X9166270Y-15468476D01*
X9166270Y-15468476D02*
X9147222Y-15458952D01*
X9147222Y-15458952D02*
X9137699Y-15449428D01*
X9137699Y-15449428D02*
X9128175Y-15430381D01*
X9128175Y-15430381D02*
X9118651Y-15392286D01*
X9118651Y-15392286D02*
X9118651Y-15344667D01*
X9118651Y-15344667D02*
X9128175Y-15306571D01*
X9128175Y-15306571D02*
X9137699Y-15287524D01*
X9137699Y-15287524D02*
X9147222Y-15278000D01*
X9147222Y-15278000D02*
X9166270Y-15268476D01*
X9299603Y-15268476D02*
X9423413Y-15268476D01*
X9423413Y-15268476D02*
X9356746Y-15344667D01*
X9356746Y-15344667D02*
X9385318Y-15344667D01*
X9385318Y-15344667D02*
X9404365Y-15354190D01*
X9404365Y-15354190D02*
X9413889Y-15363714D01*
X9413889Y-15363714D02*
X9423413Y-15382762D01*
X9423413Y-15382762D02*
X9423413Y-15430381D01*
X9423413Y-15430381D02*
X9413889Y-15449428D01*
X9413889Y-15449428D02*
X9404365Y-15458952D01*
X9404365Y-15458952D02*
X9385318Y-15468476D01*
X9385318Y-15468476D02*
X9328175Y-15468476D01*
X9328175Y-15468476D02*
X9309127Y-15458952D01*
X9309127Y-15458952D02*
X9299603Y-15449428D01*
X9604365Y-15268476D02*
X9509127Y-15268476D01*
X9509127Y-15268476D02*
X9499603Y-15363714D01*
X9499603Y-15363714D02*
X9509127Y-15354190D01*
X9509127Y-15354190D02*
X9528175Y-15344667D01*
X9528175Y-15344667D02*
X9575794Y-15344667D01*
X9575794Y-15344667D02*
X9594842Y-15354190D01*
X9594842Y-15354190D02*
X9604365Y-15363714D01*
X9604365Y-15363714D02*
X9613889Y-15382762D01*
X9613889Y-15382762D02*
X9613889Y-15430381D01*
X9613889Y-15430381D02*
X9604365Y-15449428D01*
X9604365Y-15449428D02*
X9594842Y-15458952D01*
X9594842Y-15458952D02*
X9575794Y-15468476D01*
X9575794Y-15468476D02*
X9528175Y-15468476D01*
X9528175Y-15468476D02*
X9509127Y-15458952D01*
X9509127Y-15458952D02*
X9499603Y-15449428D01*
X9785318Y-15335143D02*
X9785318Y-15468476D01*
X9737699Y-15258952D02*
X9690080Y-15401809D01*
X9690080Y-15401809D02*
X9813889Y-15401809D01*
X9880556Y-15268476D02*
X9880556Y-15306571D01*
X9956746Y-15268476D02*
X9956746Y-15306571D01*
X10219604Y-15544667D02*
X10210080Y-15535143D01*
X10210080Y-15535143D02*
X10191032Y-15506571D01*
X10191032Y-15506571D02*
X10181508Y-15487524D01*
X10181508Y-15487524D02*
X10171984Y-15458952D01*
X10171984Y-15458952D02*
X10162461Y-15411333D01*
X10162461Y-15411333D02*
X10162461Y-15373238D01*
X10162461Y-15373238D02*
X10171984Y-15325619D01*
X10171984Y-15325619D02*
X10181508Y-15297048D01*
X10181508Y-15297048D02*
X10191032Y-15278000D01*
X10191032Y-15278000D02*
X10210080Y-15249428D01*
X10210080Y-15249428D02*
X10219604Y-15239905D01*
X10276746Y-15268476D02*
X10410080Y-15268476D01*
X10410080Y-15268476D02*
X10324365Y-15468476D01*
X10495794Y-15468476D02*
X10533889Y-15468476D01*
X10533889Y-15468476D02*
X10552937Y-15458952D01*
X10552937Y-15458952D02*
X10562461Y-15449428D01*
X10562461Y-15449428D02*
X10581508Y-15420857D01*
X10581508Y-15420857D02*
X10591032Y-15382762D01*
X10591032Y-15382762D02*
X10591032Y-15306571D01*
X10591032Y-15306571D02*
X10581508Y-15287524D01*
X10581508Y-15287524D02*
X10571984Y-15278000D01*
X10571984Y-15278000D02*
X10552937Y-15268476D01*
X10552937Y-15268476D02*
X10514842Y-15268476D01*
X10514842Y-15268476D02*
X10495794Y-15278000D01*
X10495794Y-15278000D02*
X10486270Y-15287524D01*
X10486270Y-15287524D02*
X10476746Y-15306571D01*
X10476746Y-15306571D02*
X10476746Y-15354190D01*
X10476746Y-15354190D02*
X10486270Y-15373238D01*
X10486270Y-15373238D02*
X10495794Y-15382762D01*
X10495794Y-15382762D02*
X10514842Y-15392286D01*
X10514842Y-15392286D02*
X10552937Y-15392286D01*
X10552937Y-15392286D02*
X10571984Y-15382762D01*
X10571984Y-15382762D02*
X10581508Y-15373238D01*
X10581508Y-15373238D02*
X10591032Y-15354190D01*
X10796746Y-15468476D02*
X10796746Y-15268476D01*
X10882461Y-15468476D02*
X10882461Y-15363714D01*
X10882461Y-15363714D02*
X10872937Y-15344667D01*
X10872937Y-15344667D02*
X10853889Y-15335143D01*
X10853889Y-15335143D02*
X10825318Y-15335143D01*
X10825318Y-15335143D02*
X10806270Y-15344667D01*
X10806270Y-15344667D02*
X10796746Y-15354190D01*
X11006270Y-15468476D02*
X10987223Y-15458952D01*
X10987223Y-15458952D02*
X10977699Y-15449428D01*
X10977699Y-15449428D02*
X10968175Y-15430381D01*
X10968175Y-15430381D02*
X10968175Y-15373238D01*
X10968175Y-15373238D02*
X10977699Y-15354190D01*
X10977699Y-15354190D02*
X10987223Y-15344667D01*
X10987223Y-15344667D02*
X11006270Y-15335143D01*
X11006270Y-15335143D02*
X11034842Y-15335143D01*
X11034842Y-15335143D02*
X11053889Y-15344667D01*
X11053889Y-15344667D02*
X11063413Y-15354190D01*
X11063413Y-15354190D02*
X11072937Y-15373238D01*
X11072937Y-15373238D02*
X11072937Y-15430381D01*
X11072937Y-15430381D02*
X11063413Y-15449428D01*
X11063413Y-15449428D02*
X11053889Y-15458952D01*
X11053889Y-15458952D02*
X11034842Y-15468476D01*
X11034842Y-15468476D02*
X11006270Y-15468476D01*
X11187222Y-15468476D02*
X11168175Y-15458952D01*
X11168175Y-15458952D02*
X11158651Y-15439905D01*
X11158651Y-15439905D02*
X11158651Y-15268476D01*
X11339603Y-15458952D02*
X11320556Y-15468476D01*
X11320556Y-15468476D02*
X11282461Y-15468476D01*
X11282461Y-15468476D02*
X11263413Y-15458952D01*
X11263413Y-15458952D02*
X11253889Y-15439905D01*
X11253889Y-15439905D02*
X11253889Y-15363714D01*
X11253889Y-15363714D02*
X11263413Y-15344667D01*
X11263413Y-15344667D02*
X11282461Y-15335143D01*
X11282461Y-15335143D02*
X11320556Y-15335143D01*
X11320556Y-15335143D02*
X11339603Y-15344667D01*
X11339603Y-15344667D02*
X11349127Y-15363714D01*
X11349127Y-15363714D02*
X11349127Y-15382762D01*
X11349127Y-15382762D02*
X11253889Y-15401809D01*
X11425318Y-15458952D02*
X11444365Y-15468476D01*
X11444365Y-15468476D02*
X11482461Y-15468476D01*
X11482461Y-15468476D02*
X11501508Y-15458952D01*
X11501508Y-15458952D02*
X11511032Y-15439905D01*
X11511032Y-15439905D02*
X11511032Y-15430381D01*
X11511032Y-15430381D02*
X11501508Y-15411333D01*
X11501508Y-15411333D02*
X11482461Y-15401809D01*
X11482461Y-15401809D02*
X11453889Y-15401809D01*
X11453889Y-15401809D02*
X11434842Y-15392286D01*
X11434842Y-15392286D02*
X11425318Y-15373238D01*
X11425318Y-15373238D02*
X11425318Y-15363714D01*
X11425318Y-15363714D02*
X11434842Y-15344667D01*
X11434842Y-15344667D02*
X11453889Y-15335143D01*
X11453889Y-15335143D02*
X11482461Y-15335143D01*
X11482461Y-15335143D02*
X11501508Y-15344667D01*
X11577699Y-15544667D02*
X11587223Y-15535143D01*
X11587223Y-15535143D02*
X11606270Y-15506571D01*
X11606270Y-15506571D02*
X11615794Y-15487524D01*
X11615794Y-15487524D02*
X11625318Y-15458952D01*
X11625318Y-15458952D02*
X11634842Y-15411333D01*
X11634842Y-15411333D02*
X11634842Y-15373238D01*
X11634842Y-15373238D02*
X11625318Y-15325619D01*
X11625318Y-15325619D02*
X11615794Y-15297048D01*
X11615794Y-15297048D02*
X11606270Y-15278000D01*
X11606270Y-15278000D02*
X11587223Y-15249428D01*
X11587223Y-15249428D02*
X11577699Y-15239905D01*
D12*
X6754841Y-15659000D02*
G75*
G03*
X6754841Y-15659000I-45000J0D01*
G01*
D11*
X7040556Y-15532476D02*
X7059603Y-15532476D01*
X7059603Y-15532476D02*
X7078651Y-15542000D01*
X7078651Y-15542000D02*
X7088175Y-15551524D01*
X7088175Y-15551524D02*
X7097698Y-15570571D01*
X7097698Y-15570571D02*
X7107222Y-15608667D01*
X7107222Y-15608667D02*
X7107222Y-15656286D01*
X7107222Y-15656286D02*
X7097698Y-15694381D01*
X7097698Y-15694381D02*
X7088175Y-15713428D01*
X7088175Y-15713428D02*
X7078651Y-15722952D01*
X7078651Y-15722952D02*
X7059603Y-15732476D01*
X7059603Y-15732476D02*
X7040556Y-15732476D01*
X7040556Y-15732476D02*
X7021508Y-15722952D01*
X7021508Y-15722952D02*
X7011984Y-15713428D01*
X7011984Y-15713428D02*
X7002460Y-15694381D01*
X7002460Y-15694381D02*
X6992937Y-15656286D01*
X6992937Y-15656286D02*
X6992937Y-15608667D01*
X6992937Y-15608667D02*
X7002460Y-15570571D01*
X7002460Y-15570571D02*
X7011984Y-15551524D01*
X7011984Y-15551524D02*
X7021508Y-15542000D01*
X7021508Y-15542000D02*
X7040556Y-15532476D01*
X7192937Y-15713428D02*
X7202460Y-15722952D01*
X7202460Y-15722952D02*
X7192937Y-15732476D01*
X7192937Y-15732476D02*
X7183413Y-15722952D01*
X7183413Y-15722952D02*
X7192937Y-15713428D01*
X7192937Y-15713428D02*
X7192937Y-15732476D01*
X7297698Y-15732476D02*
X7335794Y-15732476D01*
X7335794Y-15732476D02*
X7354841Y-15722952D01*
X7354841Y-15722952D02*
X7364365Y-15713428D01*
X7364365Y-15713428D02*
X7383413Y-15684857D01*
X7383413Y-15684857D02*
X7392937Y-15646762D01*
X7392937Y-15646762D02*
X7392937Y-15570571D01*
X7392937Y-15570571D02*
X7383413Y-15551524D01*
X7383413Y-15551524D02*
X7373889Y-15542000D01*
X7373889Y-15542000D02*
X7354841Y-15532476D01*
X7354841Y-15532476D02*
X7316746Y-15532476D01*
X7316746Y-15532476D02*
X7297698Y-15542000D01*
X7297698Y-15542000D02*
X7288175Y-15551524D01*
X7288175Y-15551524D02*
X7278651Y-15570571D01*
X7278651Y-15570571D02*
X7278651Y-15618190D01*
X7278651Y-15618190D02*
X7288175Y-15637238D01*
X7288175Y-15637238D02*
X7297698Y-15646762D01*
X7297698Y-15646762D02*
X7316746Y-15656286D01*
X7316746Y-15656286D02*
X7354841Y-15656286D01*
X7354841Y-15656286D02*
X7373889Y-15646762D01*
X7373889Y-15646762D02*
X7383413Y-15637238D01*
X7383413Y-15637238D02*
X7392937Y-15618190D01*
X7516746Y-15532476D02*
X7535794Y-15532476D01*
X7535794Y-15532476D02*
X7554841Y-15542000D01*
X7554841Y-15542000D02*
X7564365Y-15551524D01*
X7564365Y-15551524D02*
X7573889Y-15570571D01*
X7573889Y-15570571D02*
X7583413Y-15608667D01*
X7583413Y-15608667D02*
X7583413Y-15656286D01*
X7583413Y-15656286D02*
X7573889Y-15694381D01*
X7573889Y-15694381D02*
X7564365Y-15713428D01*
X7564365Y-15713428D02*
X7554841Y-15722952D01*
X7554841Y-15722952D02*
X7535794Y-15732476D01*
X7535794Y-15732476D02*
X7516746Y-15732476D01*
X7516746Y-15732476D02*
X7497698Y-15722952D01*
X7497698Y-15722952D02*
X7488175Y-15713428D01*
X7488175Y-15713428D02*
X7478651Y-15694381D01*
X7478651Y-15694381D02*
X7469127Y-15656286D01*
X7469127Y-15656286D02*
X7469127Y-15608667D01*
X7469127Y-15608667D02*
X7478651Y-15570571D01*
X7478651Y-15570571D02*
X7488175Y-15551524D01*
X7488175Y-15551524D02*
X7497698Y-15542000D01*
X7497698Y-15542000D02*
X7516746Y-15532476D01*
X7707222Y-15532476D02*
X7726270Y-15532476D01*
X7726270Y-15532476D02*
X7745318Y-15542000D01*
X7745318Y-15542000D02*
X7754841Y-15551524D01*
X7754841Y-15551524D02*
X7764365Y-15570571D01*
X7764365Y-15570571D02*
X7773889Y-15608667D01*
X7773889Y-15608667D02*
X7773889Y-15656286D01*
X7773889Y-15656286D02*
X7764365Y-15694381D01*
X7764365Y-15694381D02*
X7754841Y-15713428D01*
X7754841Y-15713428D02*
X7745318Y-15722952D01*
X7745318Y-15722952D02*
X7726270Y-15732476D01*
X7726270Y-15732476D02*
X7707222Y-15732476D01*
X7707222Y-15732476D02*
X7688175Y-15722952D01*
X7688175Y-15722952D02*
X7678651Y-15713428D01*
X7678651Y-15713428D02*
X7669127Y-15694381D01*
X7669127Y-15694381D02*
X7659603Y-15656286D01*
X7659603Y-15656286D02*
X7659603Y-15608667D01*
X7659603Y-15608667D02*
X7669127Y-15570571D01*
X7669127Y-15570571D02*
X7678651Y-15551524D01*
X7678651Y-15551524D02*
X7688175Y-15542000D01*
X7688175Y-15542000D02*
X7707222Y-15532476D01*
X7859603Y-15732476D02*
X7859603Y-15599143D01*
X7859603Y-15618190D02*
X7869127Y-15608667D01*
X7869127Y-15608667D02*
X7888175Y-15599143D01*
X7888175Y-15599143D02*
X7916746Y-15599143D01*
X7916746Y-15599143D02*
X7935794Y-15608667D01*
X7935794Y-15608667D02*
X7945318Y-15627714D01*
X7945318Y-15627714D02*
X7945318Y-15732476D01*
X7945318Y-15627714D02*
X7954841Y-15608667D01*
X7954841Y-15608667D02*
X7973889Y-15599143D01*
X7973889Y-15599143D02*
X8002460Y-15599143D01*
X8002460Y-15599143D02*
X8021508Y-15608667D01*
X8021508Y-15608667D02*
X8031032Y-15627714D01*
X8031032Y-15627714D02*
X8031032Y-15732476D01*
X8126270Y-15732476D02*
X8126270Y-15599143D01*
X8126270Y-15618190D02*
X8135794Y-15608667D01*
X8135794Y-15608667D02*
X8154841Y-15599143D01*
X8154841Y-15599143D02*
X8183413Y-15599143D01*
X8183413Y-15599143D02*
X8202460Y-15608667D01*
X8202460Y-15608667D02*
X8211984Y-15627714D01*
X8211984Y-15627714D02*
X8211984Y-15732476D01*
X8211984Y-15627714D02*
X8221508Y-15608667D01*
X8221508Y-15608667D02*
X8240556Y-15599143D01*
X8240556Y-15599143D02*
X8269127Y-15599143D01*
X8269127Y-15599143D02*
X8288175Y-15608667D01*
X8288175Y-15608667D02*
X8297699Y-15627714D01*
X8297699Y-15627714D02*
X8297699Y-15732476D01*
X8655794Y-15522952D02*
X8484365Y-15780095D01*
X8880556Y-15532476D02*
X8899603Y-15532476D01*
X8899603Y-15532476D02*
X8918651Y-15542000D01*
X8918651Y-15542000D02*
X8928175Y-15551524D01*
X8928175Y-15551524D02*
X8937699Y-15570571D01*
X8937699Y-15570571D02*
X8947222Y-15608667D01*
X8947222Y-15608667D02*
X8947222Y-15656286D01*
X8947222Y-15656286D02*
X8937699Y-15694381D01*
X8937699Y-15694381D02*
X8928175Y-15713428D01*
X8928175Y-15713428D02*
X8918651Y-15722952D01*
X8918651Y-15722952D02*
X8899603Y-15732476D01*
X8899603Y-15732476D02*
X8880556Y-15732476D01*
X8880556Y-15732476D02*
X8861508Y-15722952D01*
X8861508Y-15722952D02*
X8851984Y-15713428D01*
X8851984Y-15713428D02*
X8842461Y-15694381D01*
X8842461Y-15694381D02*
X8832937Y-15656286D01*
X8832937Y-15656286D02*
X8832937Y-15608667D01*
X8832937Y-15608667D02*
X8842461Y-15570571D01*
X8842461Y-15570571D02*
X8851984Y-15551524D01*
X8851984Y-15551524D02*
X8861508Y-15542000D01*
X8861508Y-15542000D02*
X8880556Y-15532476D01*
X9032937Y-15713428D02*
X9042461Y-15722952D01*
X9042461Y-15722952D02*
X9032937Y-15732476D01*
X9032937Y-15732476D02*
X9023413Y-15722952D01*
X9023413Y-15722952D02*
X9032937Y-15713428D01*
X9032937Y-15713428D02*
X9032937Y-15732476D01*
X9166270Y-15532476D02*
X9185318Y-15532476D01*
X9185318Y-15532476D02*
X9204365Y-15542000D01*
X9204365Y-15542000D02*
X9213889Y-15551524D01*
X9213889Y-15551524D02*
X9223413Y-15570571D01*
X9223413Y-15570571D02*
X9232937Y-15608667D01*
X9232937Y-15608667D02*
X9232937Y-15656286D01*
X9232937Y-15656286D02*
X9223413Y-15694381D01*
X9223413Y-15694381D02*
X9213889Y-15713428D01*
X9213889Y-15713428D02*
X9204365Y-15722952D01*
X9204365Y-15722952D02*
X9185318Y-15732476D01*
X9185318Y-15732476D02*
X9166270Y-15732476D01*
X9166270Y-15732476D02*
X9147222Y-15722952D01*
X9147222Y-15722952D02*
X9137699Y-15713428D01*
X9137699Y-15713428D02*
X9128175Y-15694381D01*
X9128175Y-15694381D02*
X9118651Y-15656286D01*
X9118651Y-15656286D02*
X9118651Y-15608667D01*
X9118651Y-15608667D02*
X9128175Y-15570571D01*
X9128175Y-15570571D02*
X9137699Y-15551524D01*
X9137699Y-15551524D02*
X9147222Y-15542000D01*
X9147222Y-15542000D02*
X9166270Y-15532476D01*
X9299603Y-15532476D02*
X9423413Y-15532476D01*
X9423413Y-15532476D02*
X9356746Y-15608667D01*
X9356746Y-15608667D02*
X9385318Y-15608667D01*
X9385318Y-15608667D02*
X9404365Y-15618190D01*
X9404365Y-15618190D02*
X9413889Y-15627714D01*
X9413889Y-15627714D02*
X9423413Y-15646762D01*
X9423413Y-15646762D02*
X9423413Y-15694381D01*
X9423413Y-15694381D02*
X9413889Y-15713428D01*
X9413889Y-15713428D02*
X9404365Y-15722952D01*
X9404365Y-15722952D02*
X9385318Y-15732476D01*
X9385318Y-15732476D02*
X9328175Y-15732476D01*
X9328175Y-15732476D02*
X9309127Y-15722952D01*
X9309127Y-15722952D02*
X9299603Y-15713428D01*
X9604365Y-15532476D02*
X9509127Y-15532476D01*
X9509127Y-15532476D02*
X9499603Y-15627714D01*
X9499603Y-15627714D02*
X9509127Y-15618190D01*
X9509127Y-15618190D02*
X9528175Y-15608667D01*
X9528175Y-15608667D02*
X9575794Y-15608667D01*
X9575794Y-15608667D02*
X9594842Y-15618190D01*
X9594842Y-15618190D02*
X9604365Y-15627714D01*
X9604365Y-15627714D02*
X9613889Y-15646762D01*
X9613889Y-15646762D02*
X9613889Y-15694381D01*
X9613889Y-15694381D02*
X9604365Y-15713428D01*
X9604365Y-15713428D02*
X9594842Y-15722952D01*
X9594842Y-15722952D02*
X9575794Y-15732476D01*
X9575794Y-15732476D02*
X9528175Y-15732476D01*
X9528175Y-15732476D02*
X9509127Y-15722952D01*
X9509127Y-15722952D02*
X9499603Y-15713428D01*
X9785318Y-15599143D02*
X9785318Y-15732476D01*
X9737699Y-15522952D02*
X9690080Y-15665809D01*
X9690080Y-15665809D02*
X9813889Y-15665809D01*
X9880556Y-15532476D02*
X9880556Y-15570571D01*
X9956746Y-15532476D02*
X9956746Y-15570571D01*
X10219604Y-15808667D02*
X10210080Y-15799143D01*
X10210080Y-15799143D02*
X10191032Y-15770571D01*
X10191032Y-15770571D02*
X10181508Y-15751524D01*
X10181508Y-15751524D02*
X10171984Y-15722952D01*
X10171984Y-15722952D02*
X10162461Y-15675333D01*
X10162461Y-15675333D02*
X10162461Y-15637238D01*
X10162461Y-15637238D02*
X10171984Y-15589619D01*
X10171984Y-15589619D02*
X10181508Y-15561048D01*
X10181508Y-15561048D02*
X10191032Y-15542000D01*
X10191032Y-15542000D02*
X10210080Y-15513428D01*
X10210080Y-15513428D02*
X10219604Y-15503905D01*
X10381508Y-15599143D02*
X10381508Y-15732476D01*
X10333889Y-15522952D02*
X10286270Y-15665809D01*
X10286270Y-15665809D02*
X10410080Y-15665809D01*
X10514842Y-15618190D02*
X10495794Y-15608667D01*
X10495794Y-15608667D02*
X10486270Y-15599143D01*
X10486270Y-15599143D02*
X10476746Y-15580095D01*
X10476746Y-15580095D02*
X10476746Y-15570571D01*
X10476746Y-15570571D02*
X10486270Y-15551524D01*
X10486270Y-15551524D02*
X10495794Y-15542000D01*
X10495794Y-15542000D02*
X10514842Y-15532476D01*
X10514842Y-15532476D02*
X10552937Y-15532476D01*
X10552937Y-15532476D02*
X10571984Y-15542000D01*
X10571984Y-15542000D02*
X10581508Y-15551524D01*
X10581508Y-15551524D02*
X10591032Y-15570571D01*
X10591032Y-15570571D02*
X10591032Y-15580095D01*
X10591032Y-15580095D02*
X10581508Y-15599143D01*
X10581508Y-15599143D02*
X10571984Y-15608667D01*
X10571984Y-15608667D02*
X10552937Y-15618190D01*
X10552937Y-15618190D02*
X10514842Y-15618190D01*
X10514842Y-15618190D02*
X10495794Y-15627714D01*
X10495794Y-15627714D02*
X10486270Y-15637238D01*
X10486270Y-15637238D02*
X10476746Y-15656286D01*
X10476746Y-15656286D02*
X10476746Y-15694381D01*
X10476746Y-15694381D02*
X10486270Y-15713428D01*
X10486270Y-15713428D02*
X10495794Y-15722952D01*
X10495794Y-15722952D02*
X10514842Y-15732476D01*
X10514842Y-15732476D02*
X10552937Y-15732476D01*
X10552937Y-15732476D02*
X10571984Y-15722952D01*
X10571984Y-15722952D02*
X10581508Y-15713428D01*
X10581508Y-15713428D02*
X10591032Y-15694381D01*
X10591032Y-15694381D02*
X10591032Y-15656286D01*
X10591032Y-15656286D02*
X10581508Y-15637238D01*
X10581508Y-15637238D02*
X10571984Y-15627714D01*
X10571984Y-15627714D02*
X10552937Y-15618190D01*
X10705318Y-15618190D02*
X10686270Y-15608667D01*
X10686270Y-15608667D02*
X10676746Y-15599143D01*
X10676746Y-15599143D02*
X10667223Y-15580095D01*
X10667223Y-15580095D02*
X10667223Y-15570571D01*
X10667223Y-15570571D02*
X10676746Y-15551524D01*
X10676746Y-15551524D02*
X10686270Y-15542000D01*
X10686270Y-15542000D02*
X10705318Y-15532476D01*
X10705318Y-15532476D02*
X10743413Y-15532476D01*
X10743413Y-15532476D02*
X10762461Y-15542000D01*
X10762461Y-15542000D02*
X10771984Y-15551524D01*
X10771984Y-15551524D02*
X10781508Y-15570571D01*
X10781508Y-15570571D02*
X10781508Y-15580095D01*
X10781508Y-15580095D02*
X10771984Y-15599143D01*
X10771984Y-15599143D02*
X10762461Y-15608667D01*
X10762461Y-15608667D02*
X10743413Y-15618190D01*
X10743413Y-15618190D02*
X10705318Y-15618190D01*
X10705318Y-15618190D02*
X10686270Y-15627714D01*
X10686270Y-15627714D02*
X10676746Y-15637238D01*
X10676746Y-15637238D02*
X10667223Y-15656286D01*
X10667223Y-15656286D02*
X10667223Y-15694381D01*
X10667223Y-15694381D02*
X10676746Y-15713428D01*
X10676746Y-15713428D02*
X10686270Y-15722952D01*
X10686270Y-15722952D02*
X10705318Y-15732476D01*
X10705318Y-15732476D02*
X10743413Y-15732476D01*
X10743413Y-15732476D02*
X10762461Y-15722952D01*
X10762461Y-15722952D02*
X10771984Y-15713428D01*
X10771984Y-15713428D02*
X10781508Y-15694381D01*
X10781508Y-15694381D02*
X10781508Y-15656286D01*
X10781508Y-15656286D02*
X10771984Y-15637238D01*
X10771984Y-15637238D02*
X10762461Y-15627714D01*
X10762461Y-15627714D02*
X10743413Y-15618190D01*
X10987223Y-15732476D02*
X10987223Y-15532476D01*
X11072937Y-15732476D02*
X11072937Y-15627714D01*
X11072937Y-15627714D02*
X11063413Y-15608667D01*
X11063413Y-15608667D02*
X11044365Y-15599143D01*
X11044365Y-15599143D02*
X11015794Y-15599143D01*
X11015794Y-15599143D02*
X10996746Y-15608667D01*
X10996746Y-15608667D02*
X10987223Y-15618190D01*
X11196746Y-15732476D02*
X11177699Y-15722952D01*
X11177699Y-15722952D02*
X11168175Y-15713428D01*
X11168175Y-15713428D02*
X11158651Y-15694381D01*
X11158651Y-15694381D02*
X11158651Y-15637238D01*
X11158651Y-15637238D02*
X11168175Y-15618190D01*
X11168175Y-15618190D02*
X11177699Y-15608667D01*
X11177699Y-15608667D02*
X11196746Y-15599143D01*
X11196746Y-15599143D02*
X11225318Y-15599143D01*
X11225318Y-15599143D02*
X11244365Y-15608667D01*
X11244365Y-15608667D02*
X11253889Y-15618190D01*
X11253889Y-15618190D02*
X11263413Y-15637238D01*
X11263413Y-15637238D02*
X11263413Y-15694381D01*
X11263413Y-15694381D02*
X11253889Y-15713428D01*
X11253889Y-15713428D02*
X11244365Y-15722952D01*
X11244365Y-15722952D02*
X11225318Y-15732476D01*
X11225318Y-15732476D02*
X11196746Y-15732476D01*
X11377699Y-15732476D02*
X11358651Y-15722952D01*
X11358651Y-15722952D02*
X11349127Y-15703905D01*
X11349127Y-15703905D02*
X11349127Y-15532476D01*
X11530080Y-15722952D02*
X11511032Y-15732476D01*
X11511032Y-15732476D02*
X11472937Y-15732476D01*
X11472937Y-15732476D02*
X11453889Y-15722952D01*
X11453889Y-15722952D02*
X11444365Y-15703905D01*
X11444365Y-15703905D02*
X11444365Y-15627714D01*
X11444365Y-15627714D02*
X11453889Y-15608667D01*
X11453889Y-15608667D02*
X11472937Y-15599143D01*
X11472937Y-15599143D02*
X11511032Y-15599143D01*
X11511032Y-15599143D02*
X11530080Y-15608667D01*
X11530080Y-15608667D02*
X11539603Y-15627714D01*
X11539603Y-15627714D02*
X11539603Y-15646762D01*
X11539603Y-15646762D02*
X11444365Y-15665809D01*
X11615794Y-15722952D02*
X11634842Y-15732476D01*
X11634842Y-15732476D02*
X11672937Y-15732476D01*
X11672937Y-15732476D02*
X11691984Y-15722952D01*
X11691984Y-15722952D02*
X11701508Y-15703905D01*
X11701508Y-15703905D02*
X11701508Y-15694381D01*
X11701508Y-15694381D02*
X11691984Y-15675333D01*
X11691984Y-15675333D02*
X11672937Y-15665809D01*
X11672937Y-15665809D02*
X11644365Y-15665809D01*
X11644365Y-15665809D02*
X11625318Y-15656286D01*
X11625318Y-15656286D02*
X11615794Y-15637238D01*
X11615794Y-15637238D02*
X11615794Y-15627714D01*
X11615794Y-15627714D02*
X11625318Y-15608667D01*
X11625318Y-15608667D02*
X11644365Y-15599143D01*
X11644365Y-15599143D02*
X11672937Y-15599143D01*
X11672937Y-15599143D02*
X11691984Y-15608667D01*
X11768175Y-15808667D02*
X11777699Y-15799143D01*
X11777699Y-15799143D02*
X11796746Y-15770571D01*
X11796746Y-15770571D02*
X11806270Y-15751524D01*
X11806270Y-15751524D02*
X11815794Y-15722952D01*
X11815794Y-15722952D02*
X11825318Y-15675333D01*
X11825318Y-15675333D02*
X11825318Y-15637238D01*
X11825318Y-15637238D02*
X11815794Y-15589619D01*
X11815794Y-15589619D02*
X11806270Y-15561048D01*
X11806270Y-15561048D02*
X11796746Y-15542000D01*
X11796746Y-15542000D02*
X11777699Y-15513428D01*
X11777699Y-15513428D02*
X11768175Y-15503905D01*
X12097699Y-15808667D02*
X12088175Y-15799143D01*
X12088175Y-15799143D02*
X12069127Y-15770571D01*
X12069127Y-15770571D02*
X12059603Y-15751524D01*
X12059603Y-15751524D02*
X12050080Y-15722952D01*
X12050080Y-15722952D02*
X12040556Y-15675333D01*
X12040556Y-15675333D02*
X12040556Y-15637238D01*
X12040556Y-15637238D02*
X12050080Y-15589619D01*
X12050080Y-15589619D02*
X12059603Y-15561048D01*
X12059603Y-15561048D02*
X12069127Y-15542000D01*
X12069127Y-15542000D02*
X12088175Y-15513428D01*
X12088175Y-15513428D02*
X12097699Y-15503905D01*
X12173889Y-15599143D02*
X12173889Y-15732476D01*
X12173889Y-15618190D02*
X12183413Y-15608667D01*
X12183413Y-15608667D02*
X12202461Y-15599143D01*
X12202461Y-15599143D02*
X12231032Y-15599143D01*
X12231032Y-15599143D02*
X12250080Y-15608667D01*
X12250080Y-15608667D02*
X12259603Y-15627714D01*
X12259603Y-15627714D02*
X12259603Y-15732476D01*
X12383413Y-15732476D02*
X12364365Y-15722952D01*
X12364365Y-15722952D02*
X12354842Y-15713428D01*
X12354842Y-15713428D02*
X12345318Y-15694381D01*
X12345318Y-15694381D02*
X12345318Y-15637238D01*
X12345318Y-15637238D02*
X12354842Y-15618190D01*
X12354842Y-15618190D02*
X12364365Y-15608667D01*
X12364365Y-15608667D02*
X12383413Y-15599143D01*
X12383413Y-15599143D02*
X12411984Y-15599143D01*
X12411984Y-15599143D02*
X12431032Y-15608667D01*
X12431032Y-15608667D02*
X12440556Y-15618190D01*
X12440556Y-15618190D02*
X12450080Y-15637238D01*
X12450080Y-15637238D02*
X12450080Y-15694381D01*
X12450080Y-15694381D02*
X12440556Y-15713428D01*
X12440556Y-15713428D02*
X12431032Y-15722952D01*
X12431032Y-15722952D02*
X12411984Y-15732476D01*
X12411984Y-15732476D02*
X12383413Y-15732476D01*
X12507223Y-15599143D02*
X12583413Y-15599143D01*
X12535794Y-15532476D02*
X12535794Y-15703905D01*
X12535794Y-15703905D02*
X12545318Y-15722952D01*
X12545318Y-15722952D02*
X12564365Y-15732476D01*
X12564365Y-15732476D02*
X12583413Y-15732476D01*
X12770080Y-15599143D02*
X12770080Y-15799143D01*
X12770080Y-15608667D02*
X12789127Y-15599143D01*
X12789127Y-15599143D02*
X12827223Y-15599143D01*
X12827223Y-15599143D02*
X12846270Y-15608667D01*
X12846270Y-15608667D02*
X12855794Y-15618190D01*
X12855794Y-15618190D02*
X12865318Y-15637238D01*
X12865318Y-15637238D02*
X12865318Y-15694381D01*
X12865318Y-15694381D02*
X12855794Y-15713428D01*
X12855794Y-15713428D02*
X12846270Y-15722952D01*
X12846270Y-15722952D02*
X12827223Y-15732476D01*
X12827223Y-15732476D02*
X12789127Y-15732476D01*
X12789127Y-15732476D02*
X12770080Y-15722952D01*
X12979603Y-15732476D02*
X12960556Y-15722952D01*
X12960556Y-15722952D02*
X12951032Y-15703905D01*
X12951032Y-15703905D02*
X12951032Y-15532476D01*
X13141508Y-15732476D02*
X13141508Y-15627714D01*
X13141508Y-15627714D02*
X13131984Y-15608667D01*
X13131984Y-15608667D02*
X13112937Y-15599143D01*
X13112937Y-15599143D02*
X13074842Y-15599143D01*
X13074842Y-15599143D02*
X13055794Y-15608667D01*
X13141508Y-15722952D02*
X13122461Y-15732476D01*
X13122461Y-15732476D02*
X13074842Y-15732476D01*
X13074842Y-15732476D02*
X13055794Y-15722952D01*
X13055794Y-15722952D02*
X13046270Y-15703905D01*
X13046270Y-15703905D02*
X13046270Y-15684857D01*
X13046270Y-15684857D02*
X13055794Y-15665809D01*
X13055794Y-15665809D02*
X13074842Y-15656286D01*
X13074842Y-15656286D02*
X13122461Y-15656286D01*
X13122461Y-15656286D02*
X13141508Y-15646762D01*
X13208175Y-15599143D02*
X13284365Y-15599143D01*
X13236746Y-15532476D02*
X13236746Y-15703905D01*
X13236746Y-15703905D02*
X13246270Y-15722952D01*
X13246270Y-15722952D02*
X13265318Y-15732476D01*
X13265318Y-15732476D02*
X13284365Y-15732476D01*
X13427223Y-15722952D02*
X13408175Y-15732476D01*
X13408175Y-15732476D02*
X13370080Y-15732476D01*
X13370080Y-15732476D02*
X13351032Y-15722952D01*
X13351032Y-15722952D02*
X13341508Y-15703905D01*
X13341508Y-15703905D02*
X13341508Y-15627714D01*
X13341508Y-15627714D02*
X13351032Y-15608667D01*
X13351032Y-15608667D02*
X13370080Y-15599143D01*
X13370080Y-15599143D02*
X13408175Y-15599143D01*
X13408175Y-15599143D02*
X13427223Y-15608667D01*
X13427223Y-15608667D02*
X13436746Y-15627714D01*
X13436746Y-15627714D02*
X13436746Y-15646762D01*
X13436746Y-15646762D02*
X13341508Y-15665809D01*
X13608175Y-15732476D02*
X13608175Y-15532476D01*
X13608175Y-15722952D02*
X13589127Y-15732476D01*
X13589127Y-15732476D02*
X13551032Y-15732476D01*
X13551032Y-15732476D02*
X13531984Y-15722952D01*
X13531984Y-15722952D02*
X13522461Y-15713428D01*
X13522461Y-15713428D02*
X13512937Y-15694381D01*
X13512937Y-15694381D02*
X13512937Y-15637238D01*
X13512937Y-15637238D02*
X13522461Y-15618190D01*
X13522461Y-15618190D02*
X13531984Y-15608667D01*
X13531984Y-15608667D02*
X13551032Y-15599143D01*
X13551032Y-15599143D02*
X13589127Y-15599143D01*
X13589127Y-15599143D02*
X13608175Y-15608667D01*
X13684365Y-15808667D02*
X13693889Y-15799143D01*
X13693889Y-15799143D02*
X13712937Y-15770571D01*
X13712937Y-15770571D02*
X13722461Y-15751524D01*
X13722461Y-15751524D02*
X13731984Y-15722952D01*
X13731984Y-15722952D02*
X13741508Y-15675333D01*
X13741508Y-15675333D02*
X13741508Y-15637238D01*
X13741508Y-15637238D02*
X13731984Y-15589619D01*
X13731984Y-15589619D02*
X13722461Y-15561048D01*
X13722461Y-15561048D02*
X13712937Y-15542000D01*
X13712937Y-15542000D02*
X13693889Y-15513428D01*
X13693889Y-15513428D02*
X13684365Y-15503905D01*
M02*
