M48
; DRILL file {KiCad (6.99.0-5233-gf2fcd4b8e1)} date Thursday, 05 January 2023 at 13:17:13
; FORMAT={-:-/ absolute / metric / decimal}
; #@! TF.CreationDate,2023-01-05T13:17:13+01:00
; #@! TF.GenerationSoftware,Kicad,Pcbnew,(6.99.0-5233-gf2fcd4b8e1)
; #@! TF.FileFunction,MixedPlating,1,2
FMAT,2
METRIC
; #@! TA.AperFunction,Plated,PTH,ComponentDrill
T1C0.900
; #@! TA.AperFunction,NonPlated,NPTH,ComponentDrill
T2C0.900
%
G90
G05
T1
X70.55Y-72.375
X74.225Y-85.0
X78.7Y-80.875
X79.55Y-112.575
X79.55Y-117.75
X79.55Y-127.8
X79.625Y-122.65
X92.25Y-95.25
X95.775Y-81.925
X95.79Y-136.575
X97.13Y-127.45
X97.275Y-122.65
X97.4Y-117.7
X97.45Y-112.575
X97.525Y-107.5
X98.93Y-80.8
X112.95Y-135.2
X114.95Y-127.45
X114.99Y-107.37
X115.025Y-112.475
X115.08Y-117.54
X115.125Y-122.65
X116.1Y-81.65
X119.5Y-80.725
X123.4Y-135.31
X127.925Y-134.975
X132.32Y-134.98
X132.81Y-127.41
X132.925Y-107.45
X132.925Y-112.475
X132.925Y-117.425
X132.975Y-122.55
X136.35Y-81.825
X136.6Y-135.175
X139.5Y-80.675
X140.68Y-134.95
X144.63Y-135.01
X148.6Y-135.025
X150.55Y-112.3
X150.55Y-117.35
X150.58Y-122.33
X150.6Y-107.35
X150.625Y-127.225
X152.7Y-135.075
X156.55Y-81.65
X156.9Y-134.9
X159.75Y-80.65
X161.2Y-134.8
X165.41Y-134.69
X168.25Y-117.475
X168.25Y-127.55
X168.3Y-112.375
X168.35Y-122.55
X168.425Y-107.45
X169.71Y-134.62
X173.88Y-134.88
X176.925Y-81.925
X177.96Y-134.77
X180.2Y-80.925
X182.1Y-134.74
X185.925Y-127.45
X186.025Y-112.475
X186.025Y-117.375
X186.075Y-107.375
X186.075Y-122.375
X186.33Y-134.74
X190.57Y-134.81
X194.8Y-134.74
X197.1Y-81.8
X198.91Y-134.71
X200.4Y-80.75
X203.04Y-134.43
X203.6Y-127.5
X203.7Y-117.375
X203.7Y-122.55
X203.725Y-112.425
X203.775Y-107.375
X207.6Y-135.12
X217.05Y-81.075
T2
X70.4Y-84.9
X72.2Y-107.1
X72.2Y-107.1
X72.24Y-96.91
X72.25Y-96.9
X72.5Y-93.6
X72.5Y-93.6
X72.6Y-89.9
X72.6Y-89.9
X72.6Y-91.7
X72.6Y-91.7
X74.05Y-72.35
X75.7Y-107.1
X75.7Y-107.1
X75.8Y-97.0
X75.8Y-97.0
X75.9Y-92.0
X75.9Y-92.0
X75.9Y-93.8
X75.9Y-93.8
X76.0Y-90.1
X76.0Y-90.1
X76.9Y-75.412
X76.9Y-77.276
X76.9Y-84.912
X76.9Y-86.776
X79.2Y-94.0
X79.2Y-94.0
X79.2Y-97.1
X79.2Y-97.1
X79.3Y-92.1
X79.3Y-92.1
X79.4Y-90.3
X79.4Y-90.3
X79.44Y-84.912
X79.44Y-86.776
X79.44Y-75.412
X79.44Y-77.276
X79.5Y-107.0
X79.5Y-107.0
X80.6Y-72.3
X81.98Y-84.912
X81.98Y-86.776
X81.98Y-75.412
X81.98Y-77.276
X82.8Y-81.3
X82.8Y-92.2
X82.8Y-92.2
X82.8Y-93.8
X82.8Y-93.8
X83.0Y-90.4
X83.0Y-90.4
X83.2Y-97.1
X83.2Y-97.1
X83.2Y-106.9
X83.2Y-106.9
X84.52Y-84.912
X84.52Y-86.776
X84.52Y-75.412
X84.52Y-77.276
X86.5Y-90.4
X86.5Y-90.4
X86.5Y-92.1
X86.5Y-92.1
X86.6Y-93.8
X86.6Y-93.8
X87.0Y-96.95
X87.0Y-97.0
X87.06Y-84.912
X87.06Y-86.776
X87.06Y-75.412
X87.06Y-77.276
X87.1Y-81.1
X87.2Y-106.9
X87.2Y-106.9
X88.2Y-125.0
X88.2Y-125.0
X88.3Y-110.1
X88.3Y-120.1
X88.3Y-120.1
X88.4Y-115.2
X88.4Y-115.2
X89.6Y-84.912
X89.6Y-86.776
X89.6Y-75.412
X89.6Y-77.276
X90.9Y-72.3
X91.5Y-81.2
X92.14Y-84.912
X92.14Y-86.776
X92.14Y-75.412
X92.14Y-77.276
X92.2Y-105.3
X92.2Y-105.3
X94.68Y-84.912
X94.68Y-86.776
X94.68Y-75.412
X94.68Y-77.276
X97.05Y-103.75
X97.05Y-103.75
X97.1Y-93.7
X97.1Y-93.7
X97.22Y-84.912
X97.22Y-86.776
X97.22Y-75.412
X97.22Y-77.276
X99.76Y-84.912
X99.76Y-86.776
X99.76Y-75.412
X99.76Y-77.276
X100.9Y-72.3
X100.9Y-93.7
X100.9Y-93.7
X101.2Y-103.8
X101.2Y-103.8
X102.3Y-84.912
X102.3Y-86.776
X102.3Y-75.412
X102.3Y-77.276
X102.9Y-81.0
X104.7Y-93.6
X104.7Y-93.6
X104.7Y-103.8
X104.7Y-103.8
X104.84Y-84.912
X104.84Y-86.776
X104.84Y-75.412
X104.84Y-77.276
X105.9Y-124.9
X105.9Y-124.9
X105.95Y-120.05
X105.95Y-120.05
X106.0Y-115.0
X106.0Y-115.0
X106.15Y-110.0
X106.15Y-110.0
X107.38Y-84.912
X107.38Y-86.776
X107.38Y-75.412
X107.38Y-77.276
X107.4Y-81.0
X108.15Y-103.85
X108.15Y-103.85
X108.6Y-93.6
X108.6Y-93.6
X109.92Y-84.912
X109.92Y-86.776
X109.92Y-75.412
X109.92Y-77.276
X111.1Y-72.3
X111.7Y-81.2
X112.05Y-103.9
X112.05Y-103.9
X112.2Y-93.7
X112.2Y-93.7
X112.46Y-84.912
X112.46Y-86.776
X112.46Y-75.412
X112.46Y-77.276
X115.0Y-84.912
X115.0Y-86.776
X115.0Y-75.412
X115.0Y-77.276
X117.5Y-93.6
X117.5Y-93.6
X117.5Y-103.8
X117.5Y-103.8
X117.54Y-84.912
X117.54Y-86.776
X117.54Y-75.412
X117.54Y-77.276
X120.08Y-84.912
X120.08Y-86.776
X120.08Y-75.412
X120.08Y-77.276
X121.3Y-72.4
X121.3Y-93.6
X121.3Y-93.6
X121.3Y-103.8
X121.3Y-103.8
X122.619Y-84.912
X122.619Y-86.776
X122.62Y-75.412
X122.62Y-77.276
X123.3Y-81.1
X123.6Y-124.7
X123.6Y-124.7
X123.65Y-110.0
X123.65Y-110.0
X123.8Y-115.0
X123.8Y-115.0
X123.8Y-120.0
X123.8Y-120.0
X125.159Y-84.912
X125.159Y-86.776
X125.16Y-75.412
X125.16Y-77.276
X126.3Y-93.5
X126.3Y-93.5
X126.3Y-103.7
X126.3Y-103.7
X127.699Y-84.912
X127.699Y-86.776
X127.7Y-75.412
X127.7Y-77.276
X127.7Y-81.0
X130.1Y-103.7
X130.1Y-103.7
X130.2Y-93.8
X130.2Y-93.8
X130.239Y-84.912
X130.239Y-86.776
X130.24Y-75.412
X130.24Y-77.276
X131.5Y-72.3
X132.1Y-81.0
X132.779Y-84.912
X132.779Y-86.776
X132.78Y-75.412
X132.78Y-77.276
X133.9Y-93.7
X133.9Y-93.7
X133.9Y-103.7
X133.9Y-103.7
X135.319Y-84.912
X135.319Y-86.776
X135.32Y-75.412
X135.32Y-77.276
X137.859Y-84.912
X137.859Y-86.776
X137.86Y-75.412
X137.86Y-77.276
X139.0Y-103.7
X139.0Y-103.7
X139.1Y-93.6
X139.1Y-93.6
X140.399Y-84.912
X140.399Y-86.776
X140.4Y-75.412
X140.4Y-77.276
X141.5Y-114.9
X141.5Y-114.9
X141.5Y-124.95
X141.5Y-124.95
X141.6Y-72.2
X141.6Y-109.9
X141.6Y-109.9
X141.7Y-120.1
X141.7Y-120.1
X142.7Y-93.7
X142.7Y-93.7
X142.8Y-103.7
X142.8Y-103.7
X142.939Y-84.912
X142.939Y-86.776
X142.94Y-75.412
X142.94Y-77.276
X143.6Y-81.1
X145.479Y-84.912
X145.479Y-86.776
X145.48Y-75.412
X145.48Y-77.276
X146.6Y-93.7
X146.6Y-93.7
X146.7Y-103.8
X146.7Y-103.8
X148.0Y-81.1
X148.019Y-84.912
X148.019Y-86.776
X148.02Y-75.412
X148.02Y-77.276
X150.559Y-84.912
X150.559Y-86.776
X150.56Y-75.412
X150.56Y-77.276
X151.7Y-72.1
X151.7Y-93.7
X151.7Y-93.7
X151.7Y-103.8
X151.7Y-103.8
X152.4Y-81.0
X153.099Y-84.912
X153.099Y-86.776
X153.1Y-75.412
X153.1Y-77.276
X155.5Y-103.8
X155.5Y-103.8
X155.6Y-93.7
X155.6Y-93.7
X155.639Y-84.912
X155.639Y-86.776
X155.64Y-75.412
X155.64Y-77.276
X158.179Y-84.912
X158.179Y-86.776
X158.18Y-75.412
X158.18Y-77.276
X159.25Y-125.1
X159.25Y-125.1
X159.3Y-109.9
X159.3Y-109.9
X159.3Y-115.0
X159.3Y-115.0
X159.3Y-120.0
X159.3Y-120.0
X159.4Y-93.7
X159.4Y-93.7
X159.4Y-103.6
X159.4Y-103.6
X160.719Y-84.912
X160.719Y-86.776
X160.72Y-75.412
X160.72Y-77.276
X161.9Y-72.3
X163.259Y-84.912
X163.259Y-86.776
X163.26Y-75.412
X163.26Y-77.276
X163.8Y-81.2
X164.4Y-93.7
X164.4Y-93.7
X164.4Y-103.6
X164.4Y-103.6
X165.799Y-84.912
X165.799Y-86.776
X165.8Y-75.412
X165.8Y-77.276
X168.1Y-81.2
X168.2Y-93.6
X168.2Y-93.6
X168.25Y-103.7
X168.25Y-103.7
X168.339Y-84.912
X168.339Y-86.776
X168.34Y-75.412
X168.34Y-77.276
X170.879Y-84.912
X170.879Y-86.776
X170.88Y-75.412
X170.88Y-77.276
X171.9Y-72.1
X171.9Y-103.7
X171.9Y-103.7
X172.0Y-93.8
X172.0Y-93.8
X172.7Y-81.2
X173.419Y-84.912
X173.419Y-86.776
X173.42Y-75.412
X173.42Y-77.276
X175.959Y-84.912
X175.959Y-86.776
X175.96Y-75.412
X175.96Y-77.276
X177.0Y-110.0
X177.0Y-110.0
X177.0Y-115.0
X177.0Y-115.0
X177.0Y-119.9
X177.0Y-119.9
X177.0Y-124.9
X177.0Y-124.9
X177.1Y-93.6
X177.1Y-93.6
X177.1Y-103.8
X177.1Y-103.8
X178.499Y-84.912
X178.499Y-86.776
X178.5Y-75.412
X178.5Y-77.276
X181.039Y-84.912
X181.039Y-86.776
X181.04Y-75.412
X181.04Y-77.276
X182.2Y-72.3
X182.2Y-93.7
X182.2Y-93.7
X182.2Y-103.7
X182.2Y-103.7
X183.579Y-84.912
X183.579Y-86.776
X183.58Y-75.412
X183.58Y-77.276
X184.1Y-81.2
X186.119Y-84.912
X186.119Y-86.776
X186.12Y-75.412
X186.12Y-77.276
X187.2Y-93.7
X187.2Y-93.7
X187.4Y-103.7
X187.4Y-103.7
X188.6Y-81.2
X188.659Y-84.912
X188.659Y-86.776
X188.66Y-75.412
X188.66Y-77.276
X191.199Y-84.912
X191.199Y-86.776
X191.2Y-75.412
X191.2Y-77.276
X192.3Y-93.7
X192.3Y-93.7
X192.3Y-103.7
X192.3Y-103.7
X192.4Y-72.3
X192.9Y-81.2
X193.739Y-84.912
X193.739Y-86.776
X193.74Y-75.412
X193.74Y-77.276
X194.8Y-109.95
X194.8Y-109.95
X194.8Y-115.2
X194.8Y-115.2
X194.8Y-120.15
X194.8Y-120.15
X194.8Y-125.1
X194.8Y-125.1
X196.279Y-84.912
X196.279Y-86.776
X196.28Y-75.412
X196.28Y-77.276
X197.4Y-93.7
X197.4Y-93.7
X197.4Y-103.9
X197.4Y-103.9
X198.819Y-84.912
X198.819Y-86.776
X198.82Y-75.412
X198.82Y-77.276
X201.2Y-93.7
X201.2Y-93.7
X201.2Y-103.9
X201.2Y-103.9
X201.359Y-84.912
X201.359Y-86.776
X201.36Y-75.412
X201.36Y-77.276
X202.5Y-72.3
X203.899Y-84.912
X203.899Y-86.776
X203.9Y-75.412
X203.9Y-77.276
X204.4Y-81.2
X206.2Y-93.6
X206.2Y-93.6
X206.2Y-103.8
X206.2Y-103.8
X206.439Y-84.912
X206.439Y-86.776
X206.44Y-75.412
X206.44Y-77.276
X208.9Y-81.1
X208.979Y-84.912
X208.979Y-86.776
X208.98Y-75.412
X208.98Y-77.276
X211.4Y-93.7
X211.4Y-93.7
X211.4Y-103.8
X211.4Y-103.8
X211.519Y-84.912
X211.519Y-86.776
X211.52Y-75.412
X211.52Y-77.276
X212.2Y-125.1
X212.2Y-125.1
X212.5Y-110.0
X212.5Y-110.0
X212.5Y-115.05
X212.5Y-115.05
X212.5Y-120.1
X212.5Y-120.1
X212.7Y-72.3
X213.3Y-81.2
X214.058Y-84.912
X214.058Y-86.776
X214.06Y-75.412
X214.06Y-77.276
X216.4Y-103.8
X216.4Y-103.8
X216.5Y-93.7
X216.5Y-93.7
X216.599Y-84.912
X216.599Y-86.776
X216.6Y-75.412
X216.6Y-77.276
T0
M30
