G04 #@! TF.GenerationSoftware,KiCad,Pcbnew,(6.99.0-5233-gf2fcd4b8e1)*
G04 #@! TF.CreationDate,2023-01-05T13:17:03+01:00*
G04 #@! TF.ProjectId,208_PROGRAM_CARD_PROTO_vintage,3230385f-5052-44f4-9752-414d5f434152,1.0*
G04 #@! TF.SameCoordinates,Original*
G04 #@! TF.FileFunction,Other,User*
%FSLAX46Y46*%
G04 Gerber Fmt 4.6, Leading zero omitted, Abs format (unit mm)*
G04 Created by KiCad (PCBNEW (6.99.0-5233-gf2fcd4b8e1)) date 2023-01-05 13:17:03*
%MOMM*%
%LPD*%
G01*
G04 APERTURE LIST*
%ADD10C,0.050000*%
G04 APERTURE END LIST*
D10*
X73600000Y-71900000D02*
X74500000Y-71900000D01*
X73600000Y-72800000D02*
X73600000Y-71900000D01*
X74500000Y-71900000D02*
X74500000Y-72800000D01*
X74500000Y-72800000D02*
X73600000Y-72800000D01*
X126700000Y-80000000D02*
X126700000Y-82000000D01*
X126700000Y-80000000D02*
X128700000Y-80000000D01*
X128700000Y-82000000D02*
X126700000Y-82000000D01*
X128700000Y-82000000D02*
X128700000Y-80000000D01*
X187600000Y-80200000D02*
X187600000Y-82200000D01*
X187600000Y-80200000D02*
X189600000Y-80200000D01*
X189600000Y-82200000D02*
X187600000Y-82200000D01*
X189600000Y-82200000D02*
X189600000Y-80200000D01*
X106400000Y-80000000D02*
X106400000Y-82000000D01*
X106400000Y-80000000D02*
X108400000Y-80000000D01*
X108400000Y-82000000D02*
X106400000Y-82000000D01*
X108400000Y-82000000D02*
X108400000Y-80000000D01*
X171700000Y-80200000D02*
X171700000Y-82200000D01*
X171700000Y-80200000D02*
X173700000Y-80200000D01*
X173700000Y-82200000D02*
X171700000Y-82200000D01*
X173700000Y-82200000D02*
X173700000Y-80200000D01*
X162800000Y-80200000D02*
X162800000Y-82200000D01*
X162800000Y-80200000D02*
X164800000Y-80200000D01*
X164800000Y-82200000D02*
X162800000Y-82200000D01*
X164800000Y-82200000D02*
X164800000Y-80200000D01*
X101900000Y-80000000D02*
X101900000Y-82000000D01*
X101900000Y-80000000D02*
X103900000Y-80000000D01*
X103900000Y-82000000D02*
X101900000Y-82000000D01*
X103900000Y-82000000D02*
X103900000Y-80000000D01*
X142600000Y-80100000D02*
X142600000Y-82100000D01*
X142600000Y-80100000D02*
X144600000Y-80100000D01*
X144600000Y-82100000D02*
X142600000Y-82100000D01*
X144600000Y-82100000D02*
X144600000Y-80100000D01*
X167100000Y-80200000D02*
X167100000Y-82200000D01*
X167100000Y-80200000D02*
X169100000Y-80200000D01*
X169100000Y-82200000D02*
X167100000Y-82200000D01*
X169100000Y-82200000D02*
X169100000Y-80200000D01*
X122300000Y-80100000D02*
X122300000Y-82100000D01*
X122300000Y-80100000D02*
X124300000Y-80100000D01*
X124300000Y-82100000D02*
X122300000Y-82100000D01*
X124300000Y-82100000D02*
X124300000Y-80100000D01*
X203400000Y-80200000D02*
X203400000Y-82200000D01*
X203400000Y-80200000D02*
X205400000Y-80200000D01*
X205400000Y-82200000D02*
X203400000Y-82200000D01*
X205400000Y-82200000D02*
X205400000Y-80200000D01*
X131100000Y-80000000D02*
X131100000Y-82000000D01*
X131100000Y-80000000D02*
X133100000Y-80000000D01*
X133100000Y-82000000D02*
X131100000Y-82000000D01*
X133100000Y-82000000D02*
X133100000Y-80000000D01*
X212300000Y-80200000D02*
X212300000Y-82200000D01*
X212300000Y-80200000D02*
X214300000Y-80200000D01*
X214300000Y-82200000D02*
X212300000Y-82200000D01*
X214300000Y-82200000D02*
X214300000Y-80200000D01*
X207900000Y-80100000D02*
X207900000Y-82100000D01*
X207900000Y-80100000D02*
X209900000Y-80100000D01*
X209900000Y-82100000D02*
X207900000Y-82100000D01*
X209900000Y-82100000D02*
X209900000Y-80100000D01*
X151400000Y-80000000D02*
X151400000Y-82000000D01*
X151400000Y-80000000D02*
X153400000Y-80000000D01*
X153400000Y-82000000D02*
X151400000Y-82000000D01*
X153400000Y-82000000D02*
X153400000Y-80000000D01*
X191900000Y-80200000D02*
X191900000Y-82200000D01*
X191900000Y-80200000D02*
X193900000Y-80200000D01*
X193900000Y-82200000D02*
X191900000Y-82200000D01*
X193900000Y-82200000D02*
X193900000Y-80200000D01*
X147000000Y-80100000D02*
X147000000Y-82100000D01*
X147000000Y-80100000D02*
X149000000Y-80100000D01*
X149000000Y-82100000D02*
X147000000Y-82100000D01*
X149000000Y-82100000D02*
X149000000Y-80100000D01*
X183100000Y-80200000D02*
X183100000Y-82200000D01*
X183100000Y-80200000D02*
X185100000Y-80200000D01*
X185100000Y-82200000D02*
X183100000Y-82200000D01*
X185100000Y-82200000D02*
X185100000Y-80200000D01*
X110700000Y-80200000D02*
X110700000Y-82200000D01*
X110700000Y-80200000D02*
X112700000Y-80200000D01*
X112700000Y-82200000D02*
X110700000Y-82200000D01*
X112700000Y-82200000D02*
X112700000Y-80200000D01*
X90500000Y-80200000D02*
X90500000Y-82200000D01*
X90500000Y-80200000D02*
X92500000Y-80200000D01*
X92500000Y-82200000D02*
X90500000Y-82200000D01*
X92500000Y-82200000D02*
X92500000Y-80200000D01*
X86100000Y-80100000D02*
X86100000Y-82100000D01*
X86100000Y-80100000D02*
X88100000Y-80100000D01*
X88100000Y-82100000D02*
X86100000Y-82100000D01*
X88100000Y-82100000D02*
X88100000Y-80100000D01*
X81800000Y-80300000D02*
X81800000Y-82300000D01*
X81800000Y-80300000D02*
X83800000Y-80300000D01*
X83800000Y-82300000D02*
X81800000Y-82300000D01*
X83800000Y-82300000D02*
X83800000Y-80300000D01*
X155550000Y-80650000D02*
X155550000Y-82650000D01*
X155550000Y-80650000D02*
X157550000Y-80650000D01*
X157550000Y-82650000D02*
X155550000Y-82650000D01*
X157550000Y-82650000D02*
X157550000Y-80650000D01*
X138500000Y-79675000D02*
X138500000Y-81675000D01*
X138500000Y-79675000D02*
X140500000Y-79675000D01*
X140500000Y-81675000D02*
X138500000Y-81675000D01*
X140500000Y-81675000D02*
X140500000Y-79675000D01*
X135350000Y-80825000D02*
X135350000Y-82825000D01*
X135350000Y-80825000D02*
X137350000Y-80825000D01*
X137350000Y-82825000D02*
X135350000Y-82825000D01*
X137350000Y-82825000D02*
X137350000Y-80825000D01*
X118500000Y-79725000D02*
X118500000Y-81725000D01*
X118500000Y-79725000D02*
X120500000Y-79725000D01*
X120500000Y-81725000D02*
X118500000Y-81725000D01*
X120500000Y-81725000D02*
X120500000Y-79725000D01*
X115100000Y-80650000D02*
X115100000Y-82650000D01*
X115100000Y-80650000D02*
X117100000Y-80650000D01*
X117100000Y-82650000D02*
X115100000Y-82650000D01*
X117100000Y-82650000D02*
X117100000Y-80650000D01*
X97930000Y-79800000D02*
X97930000Y-81800000D01*
X97930000Y-79800000D02*
X99930000Y-79800000D01*
X99930000Y-81800000D02*
X97930000Y-81800000D01*
X99930000Y-81800000D02*
X99930000Y-79800000D01*
X94775000Y-80925000D02*
X94775000Y-82925000D01*
X94775000Y-80925000D02*
X96775000Y-80925000D01*
X96775000Y-82925000D02*
X94775000Y-82925000D01*
X96775000Y-82925000D02*
X96775000Y-80925000D01*
X77700000Y-79875000D02*
X77700000Y-81875000D01*
X77700000Y-79875000D02*
X79700000Y-79875000D01*
X79700000Y-81875000D02*
X77700000Y-81875000D01*
X79700000Y-81875000D02*
X79700000Y-79875000D01*
X73225000Y-84000000D02*
X73225000Y-86000000D01*
X73225000Y-84000000D02*
X75225000Y-84000000D01*
X75225000Y-86000000D02*
X73225000Y-86000000D01*
X75225000Y-86000000D02*
X75225000Y-84000000D01*
X69550000Y-71375000D02*
X69550000Y-73375000D01*
X69550000Y-71375000D02*
X71550000Y-71375000D01*
X71550000Y-73375000D02*
X69550000Y-73375000D01*
X71550000Y-73375000D02*
X71550000Y-71375000D01*
X149600000Y-106350000D02*
X149600000Y-108350000D01*
X149600000Y-106350000D02*
X151600000Y-106350000D01*
X151600000Y-108350000D02*
X149600000Y-108350000D01*
X151600000Y-108350000D02*
X151600000Y-106350000D01*
X185025000Y-111475000D02*
X185025000Y-113475000D01*
X185025000Y-111475000D02*
X187025000Y-111475000D01*
X187025000Y-113475000D02*
X185025000Y-113475000D01*
X187025000Y-113475000D02*
X187025000Y-111475000D01*
X131975000Y-121550000D02*
X131975000Y-123550000D01*
X131975000Y-121550000D02*
X133975000Y-121550000D01*
X133975000Y-123550000D02*
X131975000Y-123550000D01*
X133975000Y-123550000D02*
X133975000Y-121550000D01*
X143630000Y-134010000D02*
X143630000Y-136010000D01*
X143630000Y-134010000D02*
X145630000Y-134010000D01*
X145630000Y-136010000D02*
X143630000Y-136010000D01*
X145630000Y-136010000D02*
X145630000Y-134010000D01*
X149625000Y-126225000D02*
X149625000Y-128225000D01*
X149625000Y-126225000D02*
X151625000Y-126225000D01*
X151625000Y-128225000D02*
X149625000Y-128225000D01*
X151625000Y-128225000D02*
X151625000Y-126225000D01*
X202600000Y-126500000D02*
X202600000Y-128500000D01*
X202600000Y-126500000D02*
X204600000Y-126500000D01*
X204600000Y-128500000D02*
X202600000Y-128500000D01*
X204600000Y-128500000D02*
X204600000Y-126500000D01*
X135600000Y-134175000D02*
X135600000Y-136175000D01*
X135600000Y-134175000D02*
X137600000Y-134175000D01*
X137600000Y-136175000D02*
X135600000Y-136175000D01*
X137600000Y-136175000D02*
X137600000Y-134175000D01*
X206600000Y-134120000D02*
X206600000Y-136120000D01*
X206600000Y-134120000D02*
X208600000Y-134120000D01*
X208600000Y-136120000D02*
X206600000Y-136120000D01*
X208600000Y-136120000D02*
X208600000Y-134120000D01*
X78550000Y-116750000D02*
X78550000Y-118750000D01*
X78550000Y-116750000D02*
X80550000Y-116750000D01*
X80550000Y-118750000D02*
X78550000Y-118750000D01*
X80550000Y-118750000D02*
X80550000Y-116750000D01*
X91250000Y-94250000D02*
X91250000Y-96250000D01*
X91250000Y-94250000D02*
X93250000Y-94250000D01*
X93250000Y-96250000D02*
X91250000Y-96250000D01*
X93250000Y-96250000D02*
X93250000Y-94250000D01*
X114080000Y-116540000D02*
X114080000Y-118540000D01*
X114080000Y-116540000D02*
X116080000Y-116540000D01*
X116080000Y-118540000D02*
X114080000Y-118540000D01*
X116080000Y-118540000D02*
X116080000Y-116540000D01*
X196100000Y-80800000D02*
X196100000Y-82800000D01*
X196100000Y-80800000D02*
X198100000Y-80800000D01*
X198100000Y-82800000D02*
X196100000Y-82800000D01*
X198100000Y-82800000D02*
X198100000Y-80800000D01*
X167350000Y-121550000D02*
X167350000Y-123550000D01*
X167350000Y-121550000D02*
X169350000Y-121550000D01*
X169350000Y-123550000D02*
X167350000Y-123550000D01*
X169350000Y-123550000D02*
X169350000Y-121550000D01*
X181100000Y-133740000D02*
X181100000Y-135740000D01*
X181100000Y-133740000D02*
X183100000Y-133740000D01*
X183100000Y-135740000D02*
X181100000Y-135740000D01*
X183100000Y-135740000D02*
X183100000Y-133740000D01*
X94790000Y-135575000D02*
X94790000Y-137575000D01*
X94790000Y-135575000D02*
X96790000Y-135575000D01*
X96790000Y-137575000D02*
X94790000Y-137575000D01*
X96790000Y-137575000D02*
X96790000Y-135575000D01*
X168710000Y-133620000D02*
X168710000Y-135620000D01*
X168710000Y-133620000D02*
X170710000Y-133620000D01*
X170710000Y-135620000D02*
X168710000Y-135620000D01*
X170710000Y-135620000D02*
X170710000Y-133620000D01*
X202775000Y-106375000D02*
X202775000Y-108375000D01*
X202775000Y-106375000D02*
X204775000Y-106375000D01*
X204775000Y-108375000D02*
X202775000Y-108375000D01*
X204775000Y-108375000D02*
X204775000Y-106375000D01*
X197910000Y-133710000D02*
X197910000Y-135710000D01*
X197910000Y-133710000D02*
X199910000Y-133710000D01*
X199910000Y-135710000D02*
X197910000Y-135710000D01*
X199910000Y-135710000D02*
X199910000Y-133710000D01*
X172880000Y-133880000D02*
X172880000Y-135880000D01*
X172880000Y-133880000D02*
X174880000Y-133880000D01*
X174880000Y-135880000D02*
X172880000Y-135880000D01*
X174880000Y-135880000D02*
X174880000Y-133880000D01*
X185025000Y-116375000D02*
X185025000Y-118375000D01*
X185025000Y-116375000D02*
X187025000Y-116375000D01*
X187025000Y-118375000D02*
X185025000Y-118375000D01*
X187025000Y-118375000D02*
X187025000Y-116375000D01*
X185075000Y-106375000D02*
X185075000Y-108375000D01*
X185075000Y-106375000D02*
X187075000Y-106375000D01*
X187075000Y-108375000D02*
X185075000Y-108375000D01*
X187075000Y-108375000D02*
X187075000Y-106375000D01*
X185075000Y-121375000D02*
X185075000Y-123375000D01*
X185075000Y-121375000D02*
X187075000Y-121375000D01*
X187075000Y-123375000D02*
X185075000Y-123375000D01*
X187075000Y-123375000D02*
X187075000Y-121375000D01*
X96275000Y-121650000D02*
X96275000Y-123650000D01*
X96275000Y-121650000D02*
X98275000Y-121650000D01*
X98275000Y-123650000D02*
X96275000Y-123650000D01*
X98275000Y-123650000D02*
X98275000Y-121650000D01*
X149550000Y-116350000D02*
X149550000Y-118350000D01*
X149550000Y-116350000D02*
X151550000Y-116350000D01*
X151550000Y-118350000D02*
X149550000Y-118350000D01*
X151550000Y-118350000D02*
X151550000Y-116350000D01*
X113990000Y-106370000D02*
X113990000Y-108370000D01*
X113990000Y-106370000D02*
X115990000Y-106370000D01*
X115990000Y-108370000D02*
X113990000Y-108370000D01*
X115990000Y-108370000D02*
X115990000Y-106370000D01*
X131810000Y-126410000D02*
X131810000Y-128410000D01*
X131810000Y-126410000D02*
X133810000Y-126410000D01*
X133810000Y-128410000D02*
X131810000Y-128410000D01*
X133810000Y-128410000D02*
X133810000Y-126410000D01*
X78550000Y-111575000D02*
X78550000Y-113575000D01*
X78550000Y-111575000D02*
X80550000Y-111575000D01*
X80550000Y-113575000D02*
X78550000Y-113575000D01*
X80550000Y-113575000D02*
X80550000Y-111575000D01*
X155900000Y-133900000D02*
X155900000Y-135900000D01*
X155900000Y-133900000D02*
X157900000Y-133900000D01*
X157900000Y-135900000D02*
X155900000Y-135900000D01*
X157900000Y-135900000D02*
X157900000Y-133900000D01*
X176960000Y-133770000D02*
X176960000Y-135770000D01*
X176960000Y-133770000D02*
X178960000Y-133770000D01*
X178960000Y-135770000D02*
X176960000Y-135770000D01*
X178960000Y-135770000D02*
X178960000Y-133770000D01*
X158750000Y-79650000D02*
X158750000Y-81650000D01*
X158750000Y-79650000D02*
X160750000Y-79650000D01*
X160750000Y-81650000D02*
X158750000Y-81650000D01*
X160750000Y-81650000D02*
X160750000Y-79650000D01*
X167250000Y-116475000D02*
X167250000Y-118475000D01*
X167250000Y-116475000D02*
X169250000Y-116475000D01*
X169250000Y-118475000D02*
X167250000Y-118475000D01*
X169250000Y-118475000D02*
X169250000Y-116475000D01*
X96130000Y-126450000D02*
X96130000Y-128450000D01*
X96130000Y-126450000D02*
X98130000Y-126450000D01*
X98130000Y-128450000D02*
X96130000Y-128450000D01*
X98130000Y-128450000D02*
X98130000Y-126450000D01*
X199400000Y-79750000D02*
X199400000Y-81750000D01*
X199400000Y-79750000D02*
X201400000Y-79750000D01*
X201400000Y-81750000D02*
X199400000Y-81750000D01*
X201400000Y-81750000D02*
X201400000Y-79750000D01*
X202700000Y-121550000D02*
X202700000Y-123550000D01*
X202700000Y-121550000D02*
X204700000Y-121550000D01*
X204700000Y-123550000D02*
X202700000Y-123550000D01*
X204700000Y-123550000D02*
X204700000Y-121550000D01*
X202040000Y-133430000D02*
X202040000Y-135430000D01*
X202040000Y-133430000D02*
X204040000Y-133430000D01*
X204040000Y-135430000D02*
X202040000Y-135430000D01*
X204040000Y-135430000D02*
X204040000Y-133430000D01*
X78625000Y-121650000D02*
X78625000Y-123650000D01*
X78625000Y-121650000D02*
X80625000Y-121650000D01*
X80625000Y-123650000D02*
X78625000Y-123650000D01*
X80625000Y-123650000D02*
X80625000Y-121650000D01*
X96400000Y-116700000D02*
X96400000Y-118700000D01*
X96400000Y-116700000D02*
X98400000Y-116700000D01*
X98400000Y-118700000D02*
X96400000Y-118700000D01*
X98400000Y-118700000D02*
X98400000Y-116700000D01*
X131320000Y-133980000D02*
X131320000Y-135980000D01*
X131320000Y-133980000D02*
X133320000Y-133980000D01*
X133320000Y-135980000D02*
X131320000Y-135980000D01*
X133320000Y-135980000D02*
X133320000Y-133980000D01*
X202700000Y-116375000D02*
X202700000Y-118375000D01*
X202700000Y-116375000D02*
X204700000Y-116375000D01*
X204700000Y-118375000D02*
X202700000Y-118375000D01*
X204700000Y-118375000D02*
X204700000Y-116375000D01*
X175925000Y-80925000D02*
X175925000Y-82925000D01*
X175925000Y-80925000D02*
X177925000Y-80925000D01*
X177925000Y-82925000D02*
X175925000Y-82925000D01*
X177925000Y-82925000D02*
X177925000Y-80925000D01*
X131925000Y-116425000D02*
X131925000Y-118425000D01*
X131925000Y-116425000D02*
X133925000Y-116425000D01*
X133925000Y-118425000D02*
X131925000Y-118425000D01*
X133925000Y-118425000D02*
X133925000Y-116425000D01*
X139680000Y-133950000D02*
X139680000Y-135950000D01*
X139680000Y-133950000D02*
X141680000Y-133950000D01*
X141680000Y-135950000D02*
X139680000Y-135950000D01*
X141680000Y-135950000D02*
X141680000Y-133950000D01*
X131925000Y-111475000D02*
X131925000Y-113475000D01*
X131925000Y-111475000D02*
X133925000Y-111475000D01*
X133925000Y-113475000D02*
X131925000Y-113475000D01*
X133925000Y-113475000D02*
X133925000Y-111475000D01*
X193800000Y-133740000D02*
X193800000Y-135740000D01*
X193800000Y-133740000D02*
X195800000Y-133740000D01*
X195800000Y-135740000D02*
X193800000Y-135740000D01*
X195800000Y-135740000D02*
X195800000Y-133740000D01*
X167300000Y-111375000D02*
X167300000Y-113375000D01*
X167300000Y-111375000D02*
X169300000Y-111375000D01*
X169300000Y-113375000D02*
X167300000Y-113375000D01*
X169300000Y-113375000D02*
X169300000Y-111375000D01*
X151700000Y-134075000D02*
X151700000Y-136075000D01*
X151700000Y-134075000D02*
X153700000Y-134075000D01*
X153700000Y-136075000D02*
X151700000Y-136075000D01*
X153700000Y-136075000D02*
X153700000Y-134075000D01*
X96525000Y-106500000D02*
X96525000Y-108500000D01*
X96525000Y-106500000D02*
X98525000Y-106500000D01*
X98525000Y-108500000D02*
X96525000Y-108500000D01*
X98525000Y-108500000D02*
X98525000Y-106500000D01*
X114125000Y-121650000D02*
X114125000Y-123650000D01*
X114125000Y-121650000D02*
X116125000Y-121650000D01*
X116125000Y-123650000D02*
X114125000Y-123650000D01*
X116125000Y-123650000D02*
X116125000Y-121650000D01*
X184925000Y-126450000D02*
X184925000Y-128450000D01*
X184925000Y-126450000D02*
X186925000Y-126450000D01*
X186925000Y-128450000D02*
X184925000Y-128450000D01*
X186925000Y-128450000D02*
X186925000Y-126450000D01*
X149550000Y-111300000D02*
X149550000Y-113300000D01*
X149550000Y-111300000D02*
X151550000Y-111300000D01*
X151550000Y-113300000D02*
X149550000Y-113300000D01*
X151550000Y-113300000D02*
X151550000Y-111300000D01*
X179200000Y-79925000D02*
X179200000Y-81925000D01*
X179200000Y-79925000D02*
X181200000Y-79925000D01*
X181200000Y-81925000D02*
X179200000Y-81925000D01*
X181200000Y-81925000D02*
X181200000Y-79925000D01*
X185330000Y-133740000D02*
X185330000Y-135740000D01*
X185330000Y-133740000D02*
X187330000Y-133740000D01*
X187330000Y-135740000D02*
X185330000Y-135740000D01*
X187330000Y-135740000D02*
X187330000Y-133740000D01*
X167425000Y-106450000D02*
X167425000Y-108450000D01*
X167425000Y-106450000D02*
X169425000Y-106450000D01*
X169425000Y-108450000D02*
X167425000Y-108450000D01*
X169425000Y-108450000D02*
X169425000Y-106450000D01*
X160200000Y-133800000D02*
X160200000Y-135800000D01*
X160200000Y-133800000D02*
X162200000Y-133800000D01*
X162200000Y-135800000D02*
X160200000Y-135800000D01*
X162200000Y-135800000D02*
X162200000Y-133800000D01*
X147600000Y-134025000D02*
X147600000Y-136025000D01*
X147600000Y-134025000D02*
X149600000Y-134025000D01*
X149600000Y-136025000D02*
X147600000Y-136025000D01*
X149600000Y-136025000D02*
X149600000Y-134025000D01*
X113950000Y-126450000D02*
X113950000Y-128450000D01*
X113950000Y-126450000D02*
X115950000Y-126450000D01*
X115950000Y-128450000D02*
X113950000Y-128450000D01*
X115950000Y-128450000D02*
X115950000Y-126450000D01*
X189570000Y-133810000D02*
X189570000Y-135810000D01*
X189570000Y-133810000D02*
X191570000Y-133810000D01*
X191570000Y-135810000D02*
X189570000Y-135810000D01*
X191570000Y-135810000D02*
X191570000Y-133810000D01*
X96450000Y-111575000D02*
X96450000Y-113575000D01*
X96450000Y-111575000D02*
X98450000Y-111575000D01*
X98450000Y-113575000D02*
X96450000Y-113575000D01*
X98450000Y-113575000D02*
X98450000Y-111575000D01*
X202725000Y-111425000D02*
X202725000Y-113425000D01*
X202725000Y-111425000D02*
X204725000Y-111425000D01*
X204725000Y-113425000D02*
X202725000Y-113425000D01*
X204725000Y-113425000D02*
X204725000Y-111425000D01*
X69400000Y-83900000D02*
X69400000Y-85900000D01*
X69400000Y-83900000D02*
X71400000Y-83900000D01*
X71400000Y-85900000D02*
X69400000Y-85900000D01*
X71400000Y-85900000D02*
X71400000Y-83900000D01*
X164410000Y-133690000D02*
X164410000Y-135690000D01*
X164410000Y-133690000D02*
X166410000Y-133690000D01*
X166410000Y-135690000D02*
X164410000Y-135690000D01*
X166410000Y-135690000D02*
X166410000Y-133690000D01*
X122400000Y-134310000D02*
X122400000Y-136310000D01*
X122400000Y-134310000D02*
X124400000Y-134310000D01*
X124400000Y-136310000D02*
X122400000Y-136310000D01*
X124400000Y-136310000D02*
X124400000Y-134310000D01*
X78550000Y-126800000D02*
X78550000Y-128800000D01*
X78550000Y-126800000D02*
X80550000Y-126800000D01*
X80550000Y-128800000D02*
X78550000Y-128800000D01*
X80550000Y-128800000D02*
X80550000Y-126800000D01*
X149580000Y-121330000D02*
X149580000Y-123330000D01*
X149580000Y-121330000D02*
X151580000Y-121330000D01*
X151580000Y-123330000D02*
X149580000Y-123330000D01*
X151580000Y-123330000D02*
X151580000Y-121330000D01*
X216050000Y-80075000D02*
X216050000Y-82075000D01*
X216050000Y-80075000D02*
X218050000Y-80075000D01*
X218050000Y-82075000D02*
X216050000Y-82075000D01*
X218050000Y-82075000D02*
X218050000Y-80075000D01*
X167250000Y-126550000D02*
X167250000Y-128550000D01*
X167250000Y-126550000D02*
X169250000Y-126550000D01*
X169250000Y-128550000D02*
X167250000Y-128550000D01*
X169250000Y-128550000D02*
X169250000Y-126550000D01*
X131925000Y-106450000D02*
X131925000Y-108450000D01*
X131925000Y-106450000D02*
X133925000Y-106450000D01*
X133925000Y-108450000D02*
X131925000Y-108450000D01*
X133925000Y-108450000D02*
X133925000Y-106450000D01*
X126925000Y-133975000D02*
X126925000Y-135975000D01*
X126925000Y-133975000D02*
X128925000Y-133975000D01*
X128925000Y-135975000D02*
X126925000Y-135975000D01*
X128925000Y-135975000D02*
X128925000Y-133975000D01*
X114025000Y-111475000D02*
X114025000Y-113475000D01*
X114025000Y-111475000D02*
X116025000Y-111475000D01*
X116025000Y-113475000D02*
X114025000Y-113475000D01*
X116025000Y-113475000D02*
X116025000Y-111475000D01*
X80150000Y-71850000D02*
X81050000Y-71850000D01*
X80150000Y-72750000D02*
X80150000Y-71850000D01*
X81050000Y-71850000D02*
X81050000Y-72750000D01*
X81050000Y-72750000D02*
X80150000Y-72750000D01*
X90450000Y-71850000D02*
X91350000Y-71850000D01*
X90450000Y-72750000D02*
X90450000Y-71850000D01*
X91350000Y-71850000D02*
X91350000Y-72750000D01*
X91350000Y-72750000D02*
X90450000Y-72750000D01*
X100450000Y-71850000D02*
X101350000Y-71850000D01*
X100450000Y-72750000D02*
X100450000Y-71850000D01*
X101350000Y-71850000D02*
X101350000Y-72750000D01*
X101350000Y-72750000D02*
X100450000Y-72750000D01*
X110650000Y-71850000D02*
X111550000Y-71850000D01*
X110650000Y-72750000D02*
X110650000Y-71850000D01*
X111550000Y-71850000D02*
X111550000Y-72750000D01*
X111550000Y-72750000D02*
X110650000Y-72750000D01*
X120850000Y-71950000D02*
X121750000Y-71950000D01*
X120850000Y-72850000D02*
X120850000Y-71950000D01*
X121750000Y-71950000D02*
X121750000Y-72850000D01*
X121750000Y-72850000D02*
X120850000Y-72850000D01*
X131050000Y-71850000D02*
X131950000Y-71850000D01*
X131050000Y-72750000D02*
X131050000Y-71850000D01*
X131950000Y-71850000D02*
X131950000Y-72750000D01*
X131950000Y-72750000D02*
X131050000Y-72750000D01*
X141150000Y-71750000D02*
X142050000Y-71750000D01*
X141150000Y-72650000D02*
X141150000Y-71750000D01*
X142050000Y-71750000D02*
X142050000Y-72650000D01*
X142050000Y-72650000D02*
X141150000Y-72650000D01*
X151250000Y-71650000D02*
X152150000Y-71650000D01*
X151250000Y-72550000D02*
X151250000Y-71650000D01*
X152150000Y-71650000D02*
X152150000Y-72550000D01*
X152150000Y-72550000D02*
X151250000Y-72550000D01*
X161450000Y-71850000D02*
X162350000Y-71850000D01*
X161450000Y-72750000D02*
X161450000Y-71850000D01*
X162350000Y-71850000D02*
X162350000Y-72750000D01*
X162350000Y-72750000D02*
X161450000Y-72750000D01*
X171450000Y-71650000D02*
X172350000Y-71650000D01*
X171450000Y-72550000D02*
X171450000Y-71650000D01*
X172350000Y-71650000D02*
X172350000Y-72550000D01*
X172350000Y-72550000D02*
X171450000Y-72550000D01*
X181750000Y-71850000D02*
X182650000Y-71850000D01*
X181750000Y-72750000D02*
X181750000Y-71850000D01*
X182650000Y-71850000D02*
X182650000Y-72750000D01*
X182650000Y-72750000D02*
X181750000Y-72750000D01*
X191950000Y-71850000D02*
X192850000Y-71850000D01*
X191950000Y-72750000D02*
X191950000Y-71850000D01*
X192850000Y-71850000D02*
X192850000Y-72750000D01*
X192850000Y-72750000D02*
X191950000Y-72750000D01*
X202050000Y-71850000D02*
X202950000Y-71850000D01*
X202050000Y-72750000D02*
X202050000Y-71850000D01*
X202950000Y-71850000D02*
X202950000Y-72750000D01*
X202950000Y-72750000D02*
X202050000Y-72750000D01*
X212250000Y-71850000D02*
X213150000Y-71850000D01*
X212250000Y-72750000D02*
X212250000Y-71850000D01*
X213150000Y-71850000D02*
X213150000Y-72750000D01*
X213150000Y-72750000D02*
X212250000Y-72750000D01*
X86050000Y-89950000D02*
X86950000Y-89950000D01*
X86050000Y-90850000D02*
X86050000Y-89950000D01*
X86950000Y-89950000D02*
X86950000Y-90850000D01*
X86950000Y-90850000D02*
X86050000Y-90850000D01*
X86050000Y-91650000D02*
X86950000Y-91650000D01*
X86050000Y-92550000D02*
X86050000Y-91650000D01*
X86950000Y-91650000D02*
X86950000Y-92550000D01*
X86950000Y-92550000D02*
X86050000Y-92550000D01*
X86150000Y-93350000D02*
X87050000Y-93350000D01*
X86150000Y-94250000D02*
X86150000Y-93350000D01*
X87050000Y-93350000D02*
X87050000Y-94250000D01*
X87050000Y-94250000D02*
X86150000Y-94250000D01*
X82350000Y-93350000D02*
X83250000Y-93350000D01*
X82350000Y-94250000D02*
X82350000Y-93350000D01*
X83250000Y-93350000D02*
X83250000Y-94250000D01*
X83250000Y-94250000D02*
X82350000Y-94250000D01*
X82350000Y-91750000D02*
X83250000Y-91750000D01*
X82350000Y-92650000D02*
X82350000Y-91750000D01*
X83250000Y-91750000D02*
X83250000Y-92650000D01*
X83250000Y-92650000D02*
X82350000Y-92650000D01*
X82550000Y-89950000D02*
X83450000Y-89950000D01*
X82550000Y-90850000D02*
X82550000Y-89950000D01*
X83450000Y-89950000D02*
X83450000Y-90850000D01*
X83450000Y-90850000D02*
X82550000Y-90850000D01*
X78950000Y-89850000D02*
X79850000Y-89850000D01*
X78950000Y-90750000D02*
X78950000Y-89850000D01*
X79850000Y-89850000D02*
X79850000Y-90750000D01*
X79850000Y-90750000D02*
X78950000Y-90750000D01*
X78850000Y-91650000D02*
X79750000Y-91650000D01*
X78850000Y-92550000D02*
X78850000Y-91650000D01*
X79750000Y-91650000D02*
X79750000Y-92550000D01*
X79750000Y-92550000D02*
X78850000Y-92550000D01*
X78750000Y-93550000D02*
X79650000Y-93550000D01*
X78750000Y-94450000D02*
X78750000Y-93550000D01*
X79650000Y-93550000D02*
X79650000Y-94450000D01*
X79650000Y-94450000D02*
X78750000Y-94450000D01*
X75450000Y-93350000D02*
X76350000Y-93350000D01*
X75450000Y-94250000D02*
X75450000Y-93350000D01*
X76350000Y-93350000D02*
X76350000Y-94250000D01*
X76350000Y-94250000D02*
X75450000Y-94250000D01*
X75450000Y-91550000D02*
X76350000Y-91550000D01*
X75450000Y-92450000D02*
X75450000Y-91550000D01*
X76350000Y-91550000D02*
X76350000Y-92450000D01*
X76350000Y-92450000D02*
X75450000Y-92450000D01*
X75550000Y-89650000D02*
X76450000Y-89650000D01*
X75550000Y-90550000D02*
X75550000Y-89650000D01*
X76450000Y-89650000D02*
X76450000Y-90550000D01*
X76450000Y-90550000D02*
X75550000Y-90550000D01*
X72150000Y-89450000D02*
X73050000Y-89450000D01*
X72150000Y-90350000D02*
X72150000Y-89450000D01*
X73050000Y-89450000D02*
X73050000Y-90350000D01*
X73050000Y-90350000D02*
X72150000Y-90350000D01*
X72150000Y-91250000D02*
X73050000Y-91250000D01*
X72150000Y-92150000D02*
X72150000Y-91250000D01*
X73050000Y-91250000D02*
X73050000Y-92150000D01*
X73050000Y-92150000D02*
X72150000Y-92150000D01*
X72050000Y-93150000D02*
X72950000Y-93150000D01*
X72050000Y-94050000D02*
X72050000Y-93150000D01*
X72950000Y-93150000D02*
X72950000Y-94050000D01*
X72950000Y-94050000D02*
X72050000Y-94050000D01*
X71790000Y-96460000D02*
X72690000Y-96460000D01*
X71790000Y-97360000D02*
X71790000Y-96460000D01*
X72690000Y-96460000D02*
X72690000Y-97360000D01*
X72690000Y-97360000D02*
X71790000Y-97360000D01*
X75350000Y-96550000D02*
X76250000Y-96550000D01*
X75350000Y-97450000D02*
X75350000Y-96550000D01*
X76250000Y-96550000D02*
X76250000Y-97450000D01*
X76250000Y-97450000D02*
X75350000Y-97450000D01*
X78750000Y-96650000D02*
X79650000Y-96650000D01*
X78750000Y-97550000D02*
X78750000Y-96650000D01*
X79650000Y-96650000D02*
X79650000Y-97550000D01*
X79650000Y-97550000D02*
X78750000Y-97550000D01*
X82750000Y-96650000D02*
X83650000Y-96650000D01*
X82750000Y-97550000D02*
X82750000Y-96650000D01*
X83650000Y-96650000D02*
X83650000Y-97550000D01*
X83650000Y-97550000D02*
X82750000Y-97550000D01*
X86550000Y-96550000D02*
X87450000Y-96550000D01*
X86550000Y-97450000D02*
X86550000Y-96550000D01*
X87450000Y-96550000D02*
X87450000Y-97450000D01*
X87450000Y-97450000D02*
X86550000Y-97450000D01*
X71750000Y-106650000D02*
X72650000Y-106650000D01*
X71750000Y-107550000D02*
X71750000Y-106650000D01*
X72650000Y-106650000D02*
X72650000Y-107550000D01*
X72650000Y-107550000D02*
X71750000Y-107550000D01*
X75250000Y-106650000D02*
X76150000Y-106650000D01*
X75250000Y-107550000D02*
X75250000Y-106650000D01*
X76150000Y-106650000D02*
X76150000Y-107550000D01*
X76150000Y-107550000D02*
X75250000Y-107550000D01*
X79050000Y-106550000D02*
X79950000Y-106550000D01*
X79050000Y-107450000D02*
X79050000Y-106550000D01*
X79950000Y-106550000D02*
X79950000Y-107450000D01*
X79950000Y-107450000D02*
X79050000Y-107450000D01*
X82750000Y-106450000D02*
X83650000Y-106450000D01*
X82750000Y-107350000D02*
X82750000Y-106450000D01*
X83650000Y-106450000D02*
X83650000Y-107350000D01*
X83650000Y-107350000D02*
X82750000Y-107350000D01*
X86750000Y-106450000D02*
X87650000Y-106450000D01*
X86750000Y-107350000D02*
X86750000Y-106450000D01*
X87650000Y-106450000D02*
X87650000Y-107350000D01*
X87650000Y-107350000D02*
X86750000Y-107350000D01*
X91750000Y-104850000D02*
X92650000Y-104850000D01*
X91750000Y-105750000D02*
X91750000Y-104850000D01*
X92650000Y-104850000D02*
X92650000Y-105750000D01*
X92650000Y-105750000D02*
X91750000Y-105750000D01*
X96650000Y-93250000D02*
X97550000Y-93250000D01*
X96650000Y-94150000D02*
X96650000Y-93250000D01*
X97550000Y-93250000D02*
X97550000Y-94150000D01*
X97550000Y-94150000D02*
X96650000Y-94150000D01*
X100450000Y-93250000D02*
X101350000Y-93250000D01*
X100450000Y-94150000D02*
X100450000Y-93250000D01*
X101350000Y-93250000D02*
X101350000Y-94150000D01*
X101350000Y-94150000D02*
X100450000Y-94150000D01*
X104250000Y-93150000D02*
X105150000Y-93150000D01*
X104250000Y-94050000D02*
X104250000Y-93150000D01*
X105150000Y-93150000D02*
X105150000Y-94050000D01*
X105150000Y-94050000D02*
X104250000Y-94050000D01*
X108150000Y-93150000D02*
X109050000Y-93150000D01*
X108150000Y-94050000D02*
X108150000Y-93150000D01*
X109050000Y-93150000D02*
X109050000Y-94050000D01*
X109050000Y-94050000D02*
X108150000Y-94050000D01*
X111750000Y-93250000D02*
X112650000Y-93250000D01*
X111750000Y-94150000D02*
X111750000Y-93250000D01*
X112650000Y-93250000D02*
X112650000Y-94150000D01*
X112650000Y-94150000D02*
X111750000Y-94150000D01*
X96600000Y-103300000D02*
X97500000Y-103300000D01*
X96600000Y-104200000D02*
X96600000Y-103300000D01*
X97500000Y-103300000D02*
X97500000Y-104200000D01*
X97500000Y-104200000D02*
X96600000Y-104200000D01*
X100750000Y-103350000D02*
X101650000Y-103350000D01*
X100750000Y-104250000D02*
X100750000Y-103350000D01*
X101650000Y-103350000D02*
X101650000Y-104250000D01*
X101650000Y-104250000D02*
X100750000Y-104250000D01*
X104250000Y-103350000D02*
X105150000Y-103350000D01*
X104250000Y-104250000D02*
X104250000Y-103350000D01*
X105150000Y-103350000D02*
X105150000Y-104250000D01*
X105150000Y-104250000D02*
X104250000Y-104250000D01*
X107700000Y-103400000D02*
X108600000Y-103400000D01*
X107700000Y-104300000D02*
X107700000Y-103400000D01*
X108600000Y-103400000D02*
X108600000Y-104300000D01*
X108600000Y-104300000D02*
X107700000Y-104300000D01*
X111600000Y-103450000D02*
X112500000Y-103450000D01*
X111600000Y-104350000D02*
X111600000Y-103450000D01*
X112500000Y-103450000D02*
X112500000Y-104350000D01*
X112500000Y-104350000D02*
X111600000Y-104350000D01*
X120850000Y-103350000D02*
X121750000Y-103350000D01*
X120850000Y-104250000D02*
X120850000Y-103350000D01*
X121750000Y-103350000D02*
X121750000Y-104250000D01*
X121750000Y-104250000D02*
X120850000Y-104250000D01*
X117050000Y-103350000D02*
X117950000Y-103350000D01*
X117050000Y-104250000D02*
X117050000Y-103350000D01*
X117950000Y-103350000D02*
X117950000Y-104250000D01*
X117950000Y-104250000D02*
X117050000Y-104250000D01*
X117050000Y-93150000D02*
X117950000Y-93150000D01*
X117050000Y-94050000D02*
X117050000Y-93150000D01*
X117950000Y-93150000D02*
X117950000Y-94050000D01*
X117950000Y-94050000D02*
X117050000Y-94050000D01*
X120850000Y-93150000D02*
X121750000Y-93150000D01*
X120850000Y-94050000D02*
X120850000Y-93150000D01*
X121750000Y-93150000D02*
X121750000Y-94050000D01*
X121750000Y-94050000D02*
X120850000Y-94050000D01*
X133450000Y-103250000D02*
X134350000Y-103250000D01*
X133450000Y-104150000D02*
X133450000Y-103250000D01*
X134350000Y-103250000D02*
X134350000Y-104150000D01*
X134350000Y-104150000D02*
X133450000Y-104150000D01*
X129650000Y-103250000D02*
X130550000Y-103250000D01*
X129650000Y-104150000D02*
X129650000Y-103250000D01*
X130550000Y-103250000D02*
X130550000Y-104150000D01*
X130550000Y-104150000D02*
X129650000Y-104150000D01*
X125850000Y-103250000D02*
X126750000Y-103250000D01*
X125850000Y-104150000D02*
X125850000Y-103250000D01*
X126750000Y-103250000D02*
X126750000Y-104150000D01*
X126750000Y-104150000D02*
X125850000Y-104150000D01*
X125850000Y-93050000D02*
X126750000Y-93050000D01*
X125850000Y-93950000D02*
X125850000Y-93050000D01*
X126750000Y-93050000D02*
X126750000Y-93950000D01*
X126750000Y-93950000D02*
X125850000Y-93950000D01*
X129750000Y-93350000D02*
X130650000Y-93350000D01*
X129750000Y-94250000D02*
X129750000Y-93350000D01*
X130650000Y-93350000D02*
X130650000Y-94250000D01*
X130650000Y-94250000D02*
X129750000Y-94250000D01*
X133450000Y-93250000D02*
X134350000Y-93250000D01*
X133450000Y-94150000D02*
X133450000Y-93250000D01*
X134350000Y-93250000D02*
X134350000Y-94150000D01*
X134350000Y-94150000D02*
X133450000Y-94150000D01*
X146150000Y-93250000D02*
X147050000Y-93250000D01*
X146150000Y-94150000D02*
X146150000Y-93250000D01*
X147050000Y-93250000D02*
X147050000Y-94150000D01*
X147050000Y-94150000D02*
X146150000Y-94150000D01*
X142250000Y-93250000D02*
X143150000Y-93250000D01*
X142250000Y-94150000D02*
X142250000Y-93250000D01*
X143150000Y-93250000D02*
X143150000Y-94150000D01*
X143150000Y-94150000D02*
X142250000Y-94150000D01*
X138650000Y-93150000D02*
X139550000Y-93150000D01*
X138650000Y-94050000D02*
X138650000Y-93150000D01*
X139550000Y-93150000D02*
X139550000Y-94050000D01*
X139550000Y-94050000D02*
X138650000Y-94050000D01*
X138550000Y-103250000D02*
X139450000Y-103250000D01*
X138550000Y-104150000D02*
X138550000Y-103250000D01*
X139450000Y-103250000D02*
X139450000Y-104150000D01*
X139450000Y-104150000D02*
X138550000Y-104150000D01*
X142350000Y-103250000D02*
X143250000Y-103250000D01*
X142350000Y-104150000D02*
X142350000Y-103250000D01*
X143250000Y-103250000D02*
X143250000Y-104150000D01*
X143250000Y-104150000D02*
X142350000Y-104150000D01*
X146250000Y-103350000D02*
X147150000Y-103350000D01*
X146250000Y-104250000D02*
X146250000Y-103350000D01*
X147150000Y-103350000D02*
X147150000Y-104250000D01*
X147150000Y-104250000D02*
X146250000Y-104250000D01*
X158950000Y-103150000D02*
X159850000Y-103150000D01*
X158950000Y-104050000D02*
X158950000Y-103150000D01*
X159850000Y-103150000D02*
X159850000Y-104050000D01*
X159850000Y-104050000D02*
X158950000Y-104050000D01*
X155050000Y-103350000D02*
X155950000Y-103350000D01*
X155050000Y-104250000D02*
X155050000Y-103350000D01*
X155950000Y-103350000D02*
X155950000Y-104250000D01*
X155950000Y-104250000D02*
X155050000Y-104250000D01*
X151250000Y-103350000D02*
X152150000Y-103350000D01*
X151250000Y-104250000D02*
X151250000Y-103350000D01*
X152150000Y-103350000D02*
X152150000Y-104250000D01*
X152150000Y-104250000D02*
X151250000Y-104250000D01*
X151250000Y-93250000D02*
X152150000Y-93250000D01*
X151250000Y-94150000D02*
X151250000Y-93250000D01*
X152150000Y-93250000D02*
X152150000Y-94150000D01*
X152150000Y-94150000D02*
X151250000Y-94150000D01*
X155150000Y-93250000D02*
X156050000Y-93250000D01*
X155150000Y-94150000D02*
X155150000Y-93250000D01*
X156050000Y-93250000D02*
X156050000Y-94150000D01*
X156050000Y-94150000D02*
X155150000Y-94150000D01*
X158950000Y-93250000D02*
X159850000Y-93250000D01*
X158950000Y-94150000D02*
X158950000Y-93250000D01*
X159850000Y-93250000D02*
X159850000Y-94150000D01*
X159850000Y-94150000D02*
X158950000Y-94150000D01*
X171550000Y-93350000D02*
X172450000Y-93350000D01*
X171550000Y-94250000D02*
X171550000Y-93350000D01*
X172450000Y-93350000D02*
X172450000Y-94250000D01*
X172450000Y-94250000D02*
X171550000Y-94250000D01*
X167750000Y-93150000D02*
X168650000Y-93150000D01*
X167750000Y-94050000D02*
X167750000Y-93150000D01*
X168650000Y-93150000D02*
X168650000Y-94050000D01*
X168650000Y-94050000D02*
X167750000Y-94050000D01*
X163950000Y-93250000D02*
X164850000Y-93250000D01*
X163950000Y-94150000D02*
X163950000Y-93250000D01*
X164850000Y-93250000D02*
X164850000Y-94150000D01*
X164850000Y-94150000D02*
X163950000Y-94150000D01*
X163950000Y-103150000D02*
X164850000Y-103150000D01*
X163950000Y-104050000D02*
X163950000Y-103150000D01*
X164850000Y-103150000D02*
X164850000Y-104050000D01*
X164850000Y-104050000D02*
X163950000Y-104050000D01*
X167800000Y-103250000D02*
X168700000Y-103250000D01*
X167800000Y-104150000D02*
X167800000Y-103250000D01*
X168700000Y-103250000D02*
X168700000Y-104150000D01*
X168700000Y-104150000D02*
X167800000Y-104150000D01*
X171450000Y-103250000D02*
X172350000Y-103250000D01*
X171450000Y-104150000D02*
X171450000Y-103250000D01*
X172350000Y-103250000D02*
X172350000Y-104150000D01*
X172350000Y-104150000D02*
X171450000Y-104150000D01*
X176650000Y-103350000D02*
X177550000Y-103350000D01*
X176650000Y-104250000D02*
X176650000Y-103350000D01*
X177550000Y-103350000D02*
X177550000Y-104250000D01*
X177550000Y-104250000D02*
X176650000Y-104250000D01*
X176650000Y-93150000D02*
X177550000Y-93150000D01*
X176650000Y-94050000D02*
X176650000Y-93150000D01*
X177550000Y-93150000D02*
X177550000Y-94050000D01*
X177550000Y-94050000D02*
X176650000Y-94050000D01*
X181750000Y-93250000D02*
X182650000Y-93250000D01*
X181750000Y-94150000D02*
X181750000Y-93250000D01*
X182650000Y-93250000D02*
X182650000Y-94150000D01*
X182650000Y-94150000D02*
X181750000Y-94150000D01*
X181750000Y-103250000D02*
X182650000Y-103250000D01*
X181750000Y-104150000D02*
X181750000Y-103250000D01*
X182650000Y-103250000D02*
X182650000Y-104150000D01*
X182650000Y-104150000D02*
X181750000Y-104150000D01*
X186950000Y-103250000D02*
X187850000Y-103250000D01*
X186950000Y-104150000D02*
X186950000Y-103250000D01*
X187850000Y-103250000D02*
X187850000Y-104150000D01*
X187850000Y-104150000D02*
X186950000Y-104150000D01*
X186750000Y-93250000D02*
X187650000Y-93250000D01*
X186750000Y-94150000D02*
X186750000Y-93250000D01*
X187650000Y-93250000D02*
X187650000Y-94150000D01*
X187650000Y-94150000D02*
X186750000Y-94150000D01*
X200750000Y-93250000D02*
X201650000Y-93250000D01*
X200750000Y-94150000D02*
X200750000Y-93250000D01*
X201650000Y-93250000D02*
X201650000Y-94150000D01*
X201650000Y-94150000D02*
X200750000Y-94150000D01*
X196950000Y-93250000D02*
X197850000Y-93250000D01*
X196950000Y-94150000D02*
X196950000Y-93250000D01*
X197850000Y-93250000D02*
X197850000Y-94150000D01*
X197850000Y-94150000D02*
X196950000Y-94150000D01*
X191850000Y-93250000D02*
X192750000Y-93250000D01*
X191850000Y-94150000D02*
X191850000Y-93250000D01*
X192750000Y-93250000D02*
X192750000Y-94150000D01*
X192750000Y-94150000D02*
X191850000Y-94150000D01*
X191850000Y-103250000D02*
X192750000Y-103250000D01*
X191850000Y-104150000D02*
X191850000Y-103250000D01*
X192750000Y-103250000D02*
X192750000Y-104150000D01*
X192750000Y-104150000D02*
X191850000Y-104150000D01*
X196950000Y-103450000D02*
X197850000Y-103450000D01*
X196950000Y-104350000D02*
X196950000Y-103450000D01*
X197850000Y-103450000D02*
X197850000Y-104350000D01*
X197850000Y-104350000D02*
X196950000Y-104350000D01*
X200750000Y-103450000D02*
X201650000Y-103450000D01*
X200750000Y-104350000D02*
X200750000Y-103450000D01*
X201650000Y-103450000D02*
X201650000Y-104350000D01*
X201650000Y-104350000D02*
X200750000Y-104350000D01*
X205750000Y-103350000D02*
X206650000Y-103350000D01*
X205750000Y-104250000D02*
X205750000Y-103350000D01*
X206650000Y-103350000D02*
X206650000Y-104250000D01*
X206650000Y-104250000D02*
X205750000Y-104250000D01*
X205750000Y-93150000D02*
X206650000Y-93150000D01*
X205750000Y-94050000D02*
X205750000Y-93150000D01*
X206650000Y-93150000D02*
X206650000Y-94050000D01*
X206650000Y-94050000D02*
X205750000Y-94050000D01*
X210950000Y-93250000D02*
X211850000Y-93250000D01*
X210950000Y-94150000D02*
X210950000Y-93250000D01*
X211850000Y-93250000D02*
X211850000Y-94150000D01*
X211850000Y-94150000D02*
X210950000Y-94150000D01*
X216050000Y-93250000D02*
X216950000Y-93250000D01*
X216050000Y-94150000D02*
X216050000Y-93250000D01*
X216950000Y-93250000D02*
X216950000Y-94150000D01*
X216950000Y-94150000D02*
X216050000Y-94150000D01*
X210950000Y-103350000D02*
X211850000Y-103350000D01*
X210950000Y-104250000D02*
X210950000Y-103350000D01*
X211850000Y-103350000D02*
X211850000Y-104250000D01*
X211850000Y-104250000D02*
X210950000Y-104250000D01*
X215950000Y-103350000D02*
X216850000Y-103350000D01*
X215950000Y-104250000D02*
X215950000Y-103350000D01*
X216850000Y-103350000D02*
X216850000Y-104250000D01*
X216850000Y-104250000D02*
X215950000Y-104250000D01*
X211750000Y-124650000D02*
X212650000Y-124650000D01*
X211750000Y-125550000D02*
X211750000Y-124650000D01*
X212650000Y-124650000D02*
X212650000Y-125550000D01*
X212650000Y-125550000D02*
X211750000Y-125550000D01*
X212050000Y-119650000D02*
X212950000Y-119650000D01*
X212050000Y-120550000D02*
X212050000Y-119650000D01*
X212950000Y-119650000D02*
X212950000Y-120550000D01*
X212950000Y-120550000D02*
X212050000Y-120550000D01*
X212050000Y-114600000D02*
X212950000Y-114600000D01*
X212050000Y-115500000D02*
X212050000Y-114600000D01*
X212950000Y-114600000D02*
X212950000Y-115500000D01*
X212950000Y-115500000D02*
X212050000Y-115500000D01*
X212050000Y-109550000D02*
X212950000Y-109550000D01*
X212050000Y-110450000D02*
X212050000Y-109550000D01*
X212950000Y-109550000D02*
X212950000Y-110450000D01*
X212950000Y-110450000D02*
X212050000Y-110450000D01*
X194350000Y-109500000D02*
X195250000Y-109500000D01*
X194350000Y-110400000D02*
X194350000Y-109500000D01*
X195250000Y-109500000D02*
X195250000Y-110400000D01*
X195250000Y-110400000D02*
X194350000Y-110400000D01*
X194350000Y-114750000D02*
X195250000Y-114750000D01*
X194350000Y-115650000D02*
X194350000Y-114750000D01*
X195250000Y-114750000D02*
X195250000Y-115650000D01*
X195250000Y-115650000D02*
X194350000Y-115650000D01*
X194350000Y-119700000D02*
X195250000Y-119700000D01*
X194350000Y-120600000D02*
X194350000Y-119700000D01*
X195250000Y-119700000D02*
X195250000Y-120600000D01*
X195250000Y-120600000D02*
X194350000Y-120600000D01*
X194350000Y-124650000D02*
X195250000Y-124650000D01*
X194350000Y-125550000D02*
X194350000Y-124650000D01*
X195250000Y-124650000D02*
X195250000Y-125550000D01*
X195250000Y-125550000D02*
X194350000Y-125550000D01*
X176550000Y-109550000D02*
X177450000Y-109550000D01*
X176550000Y-110450000D02*
X176550000Y-109550000D01*
X177450000Y-109550000D02*
X177450000Y-110450000D01*
X177450000Y-110450000D02*
X176550000Y-110450000D01*
X176550000Y-114550000D02*
X177450000Y-114550000D01*
X176550000Y-115450000D02*
X176550000Y-114550000D01*
X177450000Y-114550000D02*
X177450000Y-115450000D01*
X177450000Y-115450000D02*
X176550000Y-115450000D01*
X176550000Y-119450000D02*
X177450000Y-119450000D01*
X176550000Y-120350000D02*
X176550000Y-119450000D01*
X177450000Y-119450000D02*
X177450000Y-120350000D01*
X177450000Y-120350000D02*
X176550000Y-120350000D01*
X176550000Y-124450000D02*
X177450000Y-124450000D01*
X176550000Y-125350000D02*
X176550000Y-124450000D01*
X177450000Y-124450000D02*
X177450000Y-125350000D01*
X177450000Y-125350000D02*
X176550000Y-125350000D01*
X158800000Y-124650000D02*
X159700000Y-124650000D01*
X158800000Y-125550000D02*
X158800000Y-124650000D01*
X159700000Y-124650000D02*
X159700000Y-125550000D01*
X159700000Y-125550000D02*
X158800000Y-125550000D01*
X158850000Y-119550000D02*
X159750000Y-119550000D01*
X158850000Y-120450000D02*
X158850000Y-119550000D01*
X159750000Y-119550000D02*
X159750000Y-120450000D01*
X159750000Y-120450000D02*
X158850000Y-120450000D01*
X158850000Y-114550000D02*
X159750000Y-114550000D01*
X158850000Y-115450000D02*
X158850000Y-114550000D01*
X159750000Y-114550000D02*
X159750000Y-115450000D01*
X159750000Y-115450000D02*
X158850000Y-115450000D01*
X158850000Y-109450000D02*
X159750000Y-109450000D01*
X158850000Y-110350000D02*
X158850000Y-109450000D01*
X159750000Y-109450000D02*
X159750000Y-110350000D01*
X159750000Y-110350000D02*
X158850000Y-110350000D01*
X141150000Y-109450000D02*
X142050000Y-109450000D01*
X141150000Y-110350000D02*
X141150000Y-109450000D01*
X142050000Y-109450000D02*
X142050000Y-110350000D01*
X142050000Y-110350000D02*
X141150000Y-110350000D01*
X141050000Y-114450000D02*
X141950000Y-114450000D01*
X141050000Y-115350000D02*
X141050000Y-114450000D01*
X141950000Y-114450000D02*
X141950000Y-115350000D01*
X141950000Y-115350000D02*
X141050000Y-115350000D01*
X141250000Y-119650000D02*
X142150000Y-119650000D01*
X141250000Y-120550000D02*
X141250000Y-119650000D01*
X142150000Y-119650000D02*
X142150000Y-120550000D01*
X142150000Y-120550000D02*
X141250000Y-120550000D01*
X141050000Y-124500000D02*
X141950000Y-124500000D01*
X141050000Y-125400000D02*
X141050000Y-124500000D01*
X141950000Y-124500000D02*
X141950000Y-125400000D01*
X141950000Y-125400000D02*
X141050000Y-125400000D01*
X123150000Y-124250000D02*
X124050000Y-124250000D01*
X123150000Y-125150000D02*
X123150000Y-124250000D01*
X124050000Y-124250000D02*
X124050000Y-125150000D01*
X124050000Y-125150000D02*
X123150000Y-125150000D01*
X123350000Y-119550000D02*
X124250000Y-119550000D01*
X123350000Y-120450000D02*
X123350000Y-119550000D01*
X124250000Y-119550000D02*
X124250000Y-120450000D01*
X124250000Y-120450000D02*
X123350000Y-120450000D01*
X123350000Y-114550000D02*
X124250000Y-114550000D01*
X123350000Y-115450000D02*
X123350000Y-114550000D01*
X124250000Y-114550000D02*
X124250000Y-115450000D01*
X124250000Y-115450000D02*
X123350000Y-115450000D01*
X123200000Y-109550000D02*
X124100000Y-109550000D01*
X123200000Y-110450000D02*
X123200000Y-109550000D01*
X124100000Y-109550000D02*
X124100000Y-110450000D01*
X124100000Y-110450000D02*
X123200000Y-110450000D01*
X105700000Y-109550000D02*
X106600000Y-109550000D01*
X105700000Y-110450000D02*
X105700000Y-109550000D01*
X106600000Y-109550000D02*
X106600000Y-110450000D01*
X106600000Y-110450000D02*
X105700000Y-110450000D01*
X105550000Y-114550000D02*
X106450000Y-114550000D01*
X105550000Y-115450000D02*
X105550000Y-114550000D01*
X106450000Y-114550000D02*
X106450000Y-115450000D01*
X106450000Y-115450000D02*
X105550000Y-115450000D01*
X105500000Y-119600000D02*
X106400000Y-119600000D01*
X105500000Y-120500000D02*
X105500000Y-119600000D01*
X106400000Y-119600000D02*
X106400000Y-120500000D01*
X106400000Y-120500000D02*
X105500000Y-120500000D01*
X105450000Y-124450000D02*
X106350000Y-124450000D01*
X105450000Y-125350000D02*
X105450000Y-124450000D01*
X106350000Y-124450000D02*
X106350000Y-125350000D01*
X106350000Y-125350000D02*
X105450000Y-125350000D01*
X87750000Y-124550000D02*
X88650000Y-124550000D01*
X87750000Y-125450000D02*
X87750000Y-124550000D01*
X88650000Y-124550000D02*
X88650000Y-125450000D01*
X88650000Y-125450000D02*
X87750000Y-125450000D01*
X87850000Y-119650000D02*
X88750000Y-119650000D01*
X87850000Y-120550000D02*
X87850000Y-119650000D01*
X88750000Y-119650000D02*
X88750000Y-120550000D01*
X88750000Y-120550000D02*
X87850000Y-120550000D01*
X87950000Y-114750000D02*
X88850000Y-114750000D01*
X87950000Y-115650000D02*
X87950000Y-114750000D01*
X88850000Y-114750000D02*
X88850000Y-115650000D01*
X88850000Y-115650000D02*
X87950000Y-115650000D01*
X87850000Y-109650000D02*
X88750000Y-109650000D01*
X87850000Y-110550000D02*
X87850000Y-109650000D01*
X88750000Y-109650000D02*
X88750000Y-110550000D01*
X88750000Y-110550000D02*
X87850000Y-110550000D01*
X151000000Y-40300000D02*
X151000000Y-42300000D01*
X151000000Y-40300000D02*
X153000000Y-40300000D01*
X153000000Y-42300000D02*
X151000000Y-42300000D01*
X153000000Y-42300000D02*
X153000000Y-40300000D01*
M02*
